<svg xmlns="http://www.w3.org/2000/svg" width="96" height="252" viewBox="1178.5 1931.5 96 252"><path d="M1186.958 1945.234c7.027-8.516 24.795-21.61 39.651-5.855 14.857 15.756-5.186 45.244-17.065 58.018-5.855 3.549-18.069 9.581-20.076 5.323-2.51-5.323-4.016-16.5 16.563-26.081 13.217-5.678 41.76-11.71 50.191 9.58 3.848 9.227 4.518 30.66-23.59 42.583l-35.134 15.436m0 0c-13.384.536-32.624-5.846-2.51-35.663 9.537-4.613 32.625-13.945 48.687-14.371 9.201 1.951 26.902 11.603 24.091 34.598.335 4.613-5.922 16.074-33.628 25.017-6.357 1.419-20.578 4.364-26.601 4.79l-21.583 3.194 11.544-17.565Zm0 0c8.783-2.484 29.51-6.707 42.161-3.726 15.814 3.726 22.084.532 34.632 21.29 2.175 10.646.603 32.47-23.088 34.599-23.69 2.129-38.982-1.952-43.666-4.258v-19.695m0 0c17.232 1.597 54.206.426 64.245-17.033 4.852-12.42 5.22-37.791-32.123-39.92-9.034.355-28.308 1.49-33.126 3.193l1.004 37.792c17.567 1.597 54.508 9.155 61.735 26.614 3.848 10.113 5.12 31.404-20.578 35.662-9.537.355-31.119-.958-41.157-9.048m0-37.26v37.26m0-37.26c10.875 2.662 34.833 10.007 43.666 18.098 10.708 8.87 26.401 30.872 3.514 47.905-7.194 2.66-26.3 4.79-45.173-7.985m-2.007-20.758 2.007 20.758m-2.007-20.758c12.046 8.516 36.64 29.168 38.647 43.646.837 8.871-1.405 27.36-17.065 30.34-4.015.71-13.953.639-21.582-5.323l2.007-47.905" stroke-linejoin="round" stroke-linecap="round" stroke="#84829a" fill="transparent" data-name="Decore"/></svg>