<svg xmlns="http://www.w3.org/2000/svg" width="621.204" height="468.929" viewBox="2887.515 579.641 621.204 468.929"><g data-name="undraw_building_websites_i78t"><path d="M3245.496 602.464c5.329 11.339-5.962 14.55-18.896 20.628-12.934 6.078-22.613 12.72-27.941 1.381-5.328-11.34-9.652-33.846 8.645-42.444 18.928-8.894 32.864 9.095 38.192 20.435Z" fill="#2f2e41" fill-rule="evenodd" data-name="Path 52"/><path d="M3201.696 607.252a17.412 17.412 0 1 1 0 .1z" fill="#ffb8b8" fill-rule="evenodd" data-name="Ellipse 9"/><path d="M3305.369 684.57c-.603-.788-1.205-1.56-1.815-2.312a97.643 97.643 0 0 0-2.375-2.843c-9.024-10.414-18.623-16.971-29.193-17.673h-.014l-.156-.014-21.062 20.53-7.16 6.976.156.383 3.863 9.62h67.695a166.472 166.472 0 0 0-9.94-14.668Z" fill="#2f2e41" fill-rule="evenodd" data-name="Path 53"/><path d="m3200.174 614.362 6.233-2.93-.869-8.99 4.168 7.44 2.98-1.4-.507-5.245 2.431 4.341 22.136-10.402c-4.33-9.213-15.308-13.172-24.521-8.843l-3.208 1.508c-9.213 4.33-13.172 15.308-8.843 24.52Z" fill="#2f2e41" fill-rule="evenodd" data-name="Path 54"/><path d="M3344.43 930.413h-363.56c-6.457-.007-11.69-5.24-11.697-11.697V700.26a8.58 8.58 0 0 1 8.57-8.57h369.667a8.728 8.728 0 0 1 8.717 8.719v218.307c-.007 6.457-5.24 11.69-11.697 11.697Z" fill="#f2f2f2" fill-rule="evenodd" data-name="Path 55"/><path d="M2992.213 918.716h340.874c6.265 0 11.343-5.078 11.343-11.343V721.958c0-6.265-5.078-11.343-11.343-11.343h-340.874c-6.265 0-11.343 5.078-11.343 11.343v185.415c0 6.265 5.078 11.343 11.343 11.343Z" fill="#fff" fill-rule="evenodd" data-name="Path 56"/><path d="M3355.964 699.591H2969.01v-5.955c.01-6.478 5.261-11.727 11.74-11.732h363.476c6.478.005 11.73 5.254 11.74 11.732v5.955Z" fill="#f9a826" fill-rule="evenodd" data-name="Path 57"/><path d="M2987.307 690.665a3.037 3.037 0 1 1 0 .1z" fill="#fff" fill-rule="evenodd" data-name="Ellipse 10"/><path d="M2998.834 690.665a3.037 3.037 0 1 1 0 .1z" fill="#fff" fill-rule="evenodd" data-name="Ellipse 11"/><path d="M3010.36 690.665a3.037 3.037 0 1 1 0 .1z" fill="#fff" fill-rule="evenodd" data-name="Ellipse 12"/><path d="M3173.286 878.505h-30.483a6.742 6.742 0 0 1-6.735-6.734v-30.484a6.742 6.742 0 0 1 6.735-6.734h30.483a6.742 6.742 0 0 1 6.735 6.734v30.484a6.742 6.742 0 0 1-6.735 6.734Zm-30.483-42.535a5.323 5.323 0 0 0-5.317 5.317v30.484a5.323 5.323 0 0 0 5.317 5.316h30.483a5.323 5.323 0 0 0 5.317-5.316v-30.484a5.323 5.323 0 0 0-5.317-5.317h-30.483Z" fill="#ccc" fill-rule="evenodd" data-name="Path 58"/><path d="M3167.26 869.998h-18.431a2.13 2.13 0 0 1-2.127-2.126v-22.686a2.13 2.13 0 0 1 2.127-2.126h13.355c.485 0 .955.165 1.333.469l5.076 4.079c.503.402.796 1.012.794 1.657v18.607a2.13 2.13 0 0 1-2.126 2.126Zm-18.431-25.52a.71.71 0 0 0-.71.708v22.686a.71.71 0 0 0 .71.709h18.431a.71.71 0 0 0 .71-.71v-18.606a.705.705 0 0 0-.265-.552l-5.077-4.08a.71.71 0 0 0-.444-.156h-13.355Z" fill="#ccc" fill-rule="evenodd" data-name="Path 59"/><path d="M3163.716 852.984h-11.343a.709.709 0 1 1 0-1.417h11.343a.709.709 0 1 1 0 1.417Z" fill="#ccc" fill-rule="evenodd" data-name="Path 60"/><path d="M3163.716 857.238h-11.343a.709.709 0 0 1 0-1.418h11.343a.709.709 0 0 1 0 1.418Z" fill="#ccc" fill-rule="evenodd" data-name="Path 61"/><path d="M3163.716 861.491h-11.343a.709.709 0 1 1 0-1.417h11.343a.709.709 0 1 1 0 1.417Z" fill="#ccc" fill-rule="evenodd" data-name="Path 62"/><path d="M3245.596 878.505h-30.484a6.742 6.742 0 0 1-6.734-6.734v-30.484a6.742 6.742 0 0 1 6.734-6.734h30.484a6.742 6.742 0 0 1 6.735 6.734v30.484a6.742 6.742 0 0 1-6.735 6.734Zm-30.484-42.535a5.323 5.323 0 0 0-5.316 5.317v30.484a5.323 5.323 0 0 0 5.316 5.316h30.484a5.323 5.323 0 0 0 5.317-5.316v-30.484a5.323 5.323 0 0 0-5.317-5.317h-30.484Z" fill="#ccc" fill-rule="evenodd" data-name="Path 63"/><path d="M3240.279 864.327h-19.85a2.13 2.13 0 0 1-2.126-2.127v-11.342a2.13 2.13 0 0 1 2.126-2.127h19.85a2.13 2.13 0 0 1 2.127 2.127V862.2a2.129 2.129 0 0 1-2.127 2.127Zm-19.85-14.178a.71.71 0 0 0-.709.709V862.2a.71.71 0 0 0 .71.71h19.849a.71.71 0 0 0 .709-.71v-11.342a.71.71 0 0 0-.709-.71h-19.85Z" fill="#ccc" fill-rule="evenodd" data-name="Path 64"/><path d="M3230.354 858.4c-.398 0-.789-.111-1.127-.322l-10.591-6.62a.71.71 0 1 1 .751-1.202l10.592 6.62c.23.142.521.142.751 0l10.591-6.62a.71.71 0 0 1 .752 1.203l-10.591 6.62a2.13 2.13 0 0 1-1.128.32Z" fill="#ccc" fill-rule="evenodd" data-name="Path 65"/><path d="M3100.977 878.505h-30.484a6.742 6.742 0 0 1-6.734-6.734v-30.484a6.742 6.742 0 0 1 6.734-6.734h30.484a6.742 6.742 0 0 1 6.735 6.734v30.484a6.742 6.742 0 0 1-6.735 6.734Zm-30.484-42.535a5.323 5.323 0 0 0-5.316 5.317v30.484a5.323 5.323 0 0 0 5.316 5.316h30.484a5.323 5.323 0 0 0 5.317-5.316v-30.484a5.323 5.323 0 0 0-5.317-5.317h-30.484Z" fill="#ccc" fill-rule="evenodd" data-name="Path 66"/><path d="M3095.66 864.327h-19.85a2.129 2.129 0 0 1-2.127-2.127v-11.342a2.129 2.129 0 0 1 2.127-2.127h19.85a2.13 2.13 0 0 1 2.127 2.127V862.2a2.13 2.13 0 0 1-2.127 2.127Zm-19.85-14.178a.71.71 0 0 0-.709.709V862.2a.71.71 0 0 0 .71.71h19.849a.71.71 0 0 0 .709-.71v-11.342a.71.71 0 0 0-.71-.71h-19.849Z" fill="#ccc" fill-rule="evenodd" data-name="Path 67"/><path d="M3092.514 864.327h-14.266a1.418 1.418 0 0 1-1.228-2.127l4.297-7.443a1.418 1.418 0 0 1 2.456 0l2.775 4.807 1.608-2.785a1.418 1.418 0 0 1 2.456 0l3.13 5.421a1.418 1.418 0 0 1-1.228 2.127Zm0-1.418-3.13-5.421-2.222 3.848a.709.709 0 0 1-1.228 0l-3.389-5.87-4.297 7.443h14.266Z" fill="#ccc" fill-rule="evenodd" data-name="Path 68"/><path d="M3092.115 852.884a1.418 1.418 0 1 1 0 .1z" fill="#ccc" fill-rule="evenodd" data-name="Ellipse 13"/><path d="M3432.548 1039.125h-8.692l-4.134-33.524 12.827.001-.001 33.523Z" fill="#ffb8b8" fill-rule="evenodd" data-name="Path 69"/><path d="m3434.764 1047.55-28.024-.001v-.355c0-6.024 4.884-10.907 10.908-10.907h17.117v11.263Z" fill="#2f2e41" fill-rule="evenodd" data-name="Path 70"/><path d="M3467.994 1039.125h-8.692l-4.134-33.524 12.827.001-.001 33.523Z" fill="#ffb8b8" fill-rule="evenodd" data-name="Path 71"/><path d="m3470.21 1047.55-28.024-.001v-.355c0-6.024 4.884-10.907 10.908-10.907h17.116v11.263Z" fill="#2f2e41" fill-rule="evenodd" data-name="Path 72"/><path d="m3465.388 1024.593-8.05-2.449a3.185 3.185 0 0 1-2.243-2.717l-7.505-71.123a.34.34 0 0 0-.34-.317.333.333 0 0 0-.361.29l-12.57 68.906a3.19 3.19 0 0 1-3.782 2.552l-10.287-2.12a3.202 3.202 0 0 1-2.54-3.34l7.647-112.939 51.848-5.594-7.704 125.993a3.193 3.193 0 0 1-4.113 2.858Z" fill="#2f2e41" fill-rule="evenodd" data-name="Path 73"/><path d="M3447.927 785.472a17.412 17.412 0 1 1 0 .1z" fill="#ffb8b8" fill-rule="evenodd" data-name="Ellipse 14"/><path d="m3425.277 902 11.242-70.787a26.838 26.838 0 0 1 34.032-21.55c13.252 3.832 21.418 17.113 18.858 30.669l-11.762 63.215-52.37-1.548Z" fill="#f9a826" fill-rule="evenodd" data-name="Path 74"/><path d="M3470.146 914.665a7.129 7.129 0 0 0 1.238-10.86l11.624-22.51-13.09 1.397-9.031 21.16a7.167 7.167 0 0 0 9.259 10.813Z" fill="#ffb8b8" fill-rule="evenodd" data-name="Path 75"/><path d="M3472.635 899.834a3.194 3.194 0 0 1-1.72-.816l-4.448-4.11a3.2 3.2 0 0 1-.774-3.582l8.888-21.068-1.26-41.627c.767-5.624 5.947-9.561 11.571-8.794 5.624.767 9.56 5.948 8.794 11.571l2.155 26.168a32.876 32.876 0 0 1-6.336 22.258l-13.86 18.738a3.194 3.194 0 0 1-3.01 1.262Z" fill="#f9a826" fill-rule="evenodd" data-name="Path 76"/><path d="M3365.07 776.085a7.129 7.129 0 0 0 9.518 5.375l16.196 19.48 3.818-12.599-15.965-16.566a7.168 7.168 0 0 0-13.567 4.31Z" fill="#ffb8b8" fill-rule="evenodd" data-name="Path 77"/><path d="M3377.757 784.16c.334-.557.83-.998 1.422-1.266l5.518-2.493a3.2 3.2 0 0 1 3.601.684l15.935 16.399 38.825 15.069c4.88 2.899 6.485 9.205 3.586 14.084-2.9 4.88-9.205 6.485-14.084 3.586l-24.938-8.217a32.875 32.875 0 0 1-18.026-14.513l-11.85-20.07a3.194 3.194 0 0 1 .01-3.263Z" fill="#f9a826" fill-rule="evenodd" data-name="Path 78"/><path d="m3479.462 845.947-.71 22.685-13.059 22.693 10.905-25.289 2.864-20.09Z" fill-rule="evenodd" data-name="Path 79"/><path d="M3463.344 788.844a4.553 4.553 0 0 1-4.984-3.333 6.922 6.922 0 0 0-4.927-5.157c-3.195-.73-7.098.774-9.439-1.646a4.705 4.705 0 0 1-1.116-4.142c.43-2.351 2.113-4.128 3.943-5.549a24.147 24.147 0 0 1 13.375-4.998 47.975 47.975 0 0 1 7.53.374c2.613.165 5.198.638 7.7 1.408a18.131 18.131 0 0 1 11.345 13.243 20.933 20.933 0 0 1-4.294 17.106 22.475 22.475 0 0 1-8.621 6.564 3.363 3.363 0 0 1-2.557.13c-2.096-.834-1.754-3.431-.798-5.163 1.023-1.854 2.597-3.649 1.775-5.905a4.468 4.468 0 0 0-2.217-2.386c-2.085-1.063-4.416-.811-6.656-.553Z" fill="#2f2e41" fill-rule="evenodd" data-name="Path 80"/><path d="M3359.252 798.677H3143.74c-6.457-.008-11.69-5.24-11.697-11.697V740.9c.007-6.457 5.24-11.69 11.697-11.697h215.51c6.458.007 11.69 5.24 11.698 11.697v46.08c-.008 6.457-5.24 11.69-11.697 11.697Z" fill="#fff" fill-rule="evenodd" data-name="Path 81"/><path d="M3359.251 799.031h-215.51c-6.653-.007-12.044-5.398-12.052-12.051V740.9c.008-6.653 5.399-12.044 12.052-12.051h215.51c6.653.007 12.045 5.398 12.052 12.051v46.08c-.008 6.653-5.399 12.044-12.052 12.051Zm-215.51-68.765c-5.87.007-10.627 4.764-10.634 10.634v46.08c.007 5.87 4.764 10.627 10.634 10.633h215.51c5.87-.006 10.627-4.763 10.634-10.633V740.9c-.007-5.87-4.763-10.627-10.634-10.634h-215.51Z" fill="#3f3d56" fill-rule="evenodd" data-name="Path 82"/><path d="M3333.021 787.334h-163.05c-6.457-.007-11.69-5.24-11.698-11.697v-24.103c.008-6.457 5.24-11.69 11.698-11.697h163.05c6.458.007 11.69 5.24 11.698 11.697v24.103c-.008 6.457-5.24 11.69-11.698 11.697Z" fill="#f2f2f2" fill-rule="evenodd" data-name="Path 83"/><path d="M3191.07 760.254a13.989 13.989 0 1 1 0 .1z" fill="#ff6584" fill-rule="evenodd" data-name="Ellipse 15"/><path d="m3322.889 785.922-19.745-16.56-19.404-16.274a2.836 2.836 0 0 0-3.653.007l-19.342 16.35-4.724 3.993-7.124-5.975-21.648-18.156a2.835 2.835 0 0 0-3.652.007l-21.578 18.24-21.918 18.526a.709.709 0 0 0 .46 1.25l44.935-.086 14.224-.027-.14.117 42.4-.082 40.455-.077a.709.709 0 0 0 .454-1.252Z" fill="#3f3d56" fill-rule="evenodd" data-name="Path 84"/><path d="M3508.01 1048.57h-136.113a.709.709 0 0 1 0-1.418h136.113a.709.709 0 0 1 0 1.418Z" fill="#ccc" fill-rule="evenodd" data-name="Path 85"/><path d="M3315.74 673.156a7.954 7.954 0 0 0-5.14-3.616 7.305 7.305 0 0 0-1.176-.149l-54.013-48.291a6.39 6.39 0 0 0-3.99-1.907 5.44 5.44 0 0 0-.901-.028 6.42 6.42 0 0 0-4.225 10.974l20.679 18.027 33.957 29.598a7.987 7.987 0 0 0 7.103 7.585 7.863 7.863 0 0 0 4.29-.709 8.086 8.086 0 0 0 2.75-2.105 8.005 8.005 0 0 0 .666-9.379Z" fill="#ffb8b8" fill-rule="evenodd" data-name="Path 86"/><path d="m3223.354 719.696-.503-20.46-.425-16.978-.291-11.881-.575-23.16a6.413 6.413 0 0 0-11.137-3.722 4.91 4.91 0 0 0-.531.68 6.334 6.334 0 0 0-1.106 4.29l1.262 33.793.63 16.979.809 21.657a8.537 8.537 0 0 0-.631 1 7.974 7.974 0 0 0-.503 6.267 8.019 8.019 0 0 0 11.03 4.7 8.011 8.011 0 0 0 1.971-13.165Z" fill="#ffb8b8" fill-rule="evenodd" data-name="Path 87"/><path d="m3271.986 661.742-5.012-13.576-8.11-21.99a11.347 11.347 0 0 0-7.444-6.983 11.331 11.331 0 0 0-9.386 1.29l-27.314 17.326c-5.2 3.29-6.853 10.113-3.736 15.419a195.865 195.865 0 0 0 11.15 17.149c3.184 4.331 9.11 4.792 10.139 11.881h20.14l20.388-18.304-.815-2.212Z" fill="#ccc" fill-rule="evenodd" data-name="Path 88"/><path d="M2942.805 811.131a16.427 16.427 0 1 1 0 .1z" fill="#a0616a" fill-rule="evenodd" data-name="Ellipse 16"/><path d="M2999.56 799.924c.162.129.319.265.47.41a7.358 7.358 0 0 1-.295 10.976c-.185.155-.377.3-.577.435l1.112 37.534a5.715 5.715 0 0 1-3.931 5.577l-.068.014-30.475 3.246a6.308 6.308 0 1 1-1.221-12.557l21.724-1.913 3.757-32.505a7.01 7.01 0 0 1-.689-.702 7.359 7.359 0 0 1 10.193-10.515Z" fill="#a0616a" fill-rule="evenodd" data-name="Path 89"/><path d="M2986.287 1039.851h8.2l3.9-31.627h-12.102l.002 31.627Z" fill="#a0616a" fill-rule="evenodd" data-name="Path 90"/><path d="M2984.195 1037.174h16.148c5.684 0 10.292 4.607 10.291 10.29v.334l-26.438.002v-10.626Z" fill="#2f2e41" fill-rule="evenodd" data-name="Path 91"/><path d="m2904.788 1028.514 7.045 4.195 19.533-25.179-10.398-6.19-16.18 27.174Z" fill="#a0616a" fill-rule="evenodd" data-name="Path 92"/><path d="m2904.36 1025.144 13.875 8.261c4.884 2.908 6.486 9.224 3.578 14.107l-.171.288-22.717-13.526 5.436-9.13Z" fill="#2f2e41" fill-rule="evenodd" data-name="Path 93"/><path d="M2996.421 1028.68h-9.181a3.004 3.004 0 0 1-2.993-2.691l-9.257-87.01a1.003 1.003 0 0 0-1.912-.308l-16.698 36.977-29.565 48.208a3.024 3.024 0 0 1-3.778 1.18l-11.81-5.196a3.01 3.01 0 0 1-1.372-4.299l27.178-45.506 8.335-38.342c-2.621-16.628 8.617-41.349 8.73-41.597l.057-.12 30.956-12.1.155.19c12.209 40.063 19.648 83.179 14.155 147.857a3.03 3.03 0 0 1-3 2.758Z" fill="#2f2e41" fill-rule="evenodd" data-name="Path 94"/><path d="m2952.907 894.027-.144-.303c-.069-.145-6.952-14.663-12.258-30.18a22.887 22.887 0 0 1 1.587-18.342 23.137 23.137 0 0 1 14.754-11.346c11.162-2.675 22.6 3.227 26.888 13.874 4.209 10.525 2.867 21.76 1.605 30.594l-.025.177-.161.077-32.246 15.449Z" fill="#3f3d56" fill-rule="evenodd" data-name="Path 95"/><path d="M2979.149 801.952h-26.084v-11.37c5.725-2.274 11.328-4.208 14.714 0 6.28 0 11.37 5.09 11.37 11.37Z" fill="#2f2e41" fill-rule="evenodd" data-name="Path 96"/><path d="M2951.621 788.576c-15.593 0-19.958 19.546-19.958 30.572 0 6.15 2.781 8.35 7.151 9.094l1.544-8.232 3.614 8.586c1.228.006 2.518-.018 3.855-.043l1.225-2.523 2.733 2.478c10.947.016 19.794 1.612 19.794-9.36 0-11.026-3.828-30.572-19.958-30.572Z" fill="#2f2e41" fill-rule="evenodd" data-name="Path 97"/><path d="M3024.336 1048.57h-136.112a.709.709 0 1 1 0-1.418h136.112a.709.709 0 0 1 0 1.418Z" fill="#ccc" fill-rule="evenodd" data-name="Path 98"/><path d="M3026.895 815.336h-30.483a6.742 6.742 0 0 1-6.735-6.734v-30.484a6.742 6.742 0 0 1 6.735-6.734h30.483a6.742 6.742 0 0 1 6.735 6.734v30.484a6.742 6.742 0 0 1-6.735 6.734Z" fill="#fff" fill-rule="evenodd" data-name="Path 99"/><path d="M3026.895 815.336h-30.483a6.742 6.742 0 0 1-6.735-6.734v-30.484a6.742 6.742 0 0 1 6.735-6.734h30.483a6.742 6.742 0 0 1 6.735 6.734v30.484a6.742 6.742 0 0 1-6.735 6.734Zm-30.483-42.535a5.323 5.323 0 0 0-5.317 5.317v30.484a5.323 5.323 0 0 0 5.317 5.317h30.483a5.323 5.323 0 0 0 5.317-5.317v-30.484a5.323 5.323 0 0 0-5.317-5.317h-30.483Z" fill="#3f3d56" fill-rule="evenodd" data-name="Path 100"/><path d="M3021.578 802.93h-19.85a2.13 2.13 0 0 1-2.126-2.126v-14.888a2.13 2.13 0 0 1 2.126-2.126h5.588a2.113 2.113 0 0 1 1.812 1.011l1.558 2.533h10.892a2.13 2.13 0 0 1 2.127 2.127v11.343a2.13 2.13 0 0 1-2.127 2.126Z" fill="#f9a826" fill-rule="evenodd" data-name="Path 101"/><path d="M3020.932 810.451a7.359 7.359 0 0 1-4.257 10.562c-.23.072-.464.13-.7.177l-13.54 35.024a5.715 5.715 0 0 1-5.787 3.615l-.068-.013-29.347-8.835a6.308 6.308 0 1 1 3.748-12.047l20.764 6.667 16.076-28.5a7.001 7.001 0 0 1-.363-.914 7.359 7.359 0 0 1 13.474-5.736Z" fill="#a0616a" fill-rule="evenodd" data-name="Path 102"/></g></svg>