<svg width="783" height="785" viewBox="0 0 783 785" fill="none" xmlns="http://www.w3.org/2000/svg">
<g filter="url(#filter0_d_1_208)">
<g clip-path="url(#clip0_1_208)">
<path fill-rule="evenodd" clip-rule="evenodd" d="M325.432 151.377C335.717 158.532 327.544 166.958 319.382 178.689C311.22 190.42 306.158 201.012 295.875 193.856C285.59 186.699 270.593 169.37 282.139 152.776C294.084 135.609 315.148 144.22 325.432 151.377Z" fill="#2F2E41"/>
<path fill-rule="evenodd" clip-rule="evenodd" d="M289.894 177.423C287.599 173.421 286.986 168.672 288.189 164.218C289.393 159.764 292.315 155.97 296.314 153.669C300.313 151.368 305.062 150.748 309.517 151.945C313.973 153.142 317.771 156.059 320.078 160.055C322.385 164.05 323.011 168.798 321.82 173.255C320.63 177.712 317.718 181.515 313.726 183.827C309.734 186.14 304.987 186.774 300.528 185.589C296.069 184.405 292.263 181.499 289.944 177.51L289.894 177.423Z" fill="#FFB8B8"/>
<path fill-rule="evenodd" clip-rule="evenodd" d="M418.337 192.546C417.42 192.165 416.513 191.798 415.609 191.451C414.458 191.005 413.298 190.58 412.131 190.177C399.109 185.67 387.517 184.791 378.012 189.468L378 189.475L377.858 189.541L369.883 217.851L367.17 227.473L367.497 227.726L375.652 234.126L434.278 200.279C429.105 197.42 423.783 194.839 418.335 192.546L418.337 192.546Z" fill="#2F2E41"/>
<path fill-rule="evenodd" clip-rule="evenodd" d="M292.131 184.342L296.064 178.688L290.817 171.337L298.146 175.696L300.027 172.993L296.965 168.705L301.241 171.249L315.211 151.172C306.854 145.358 295.368 147.419 289.553 155.774L287.529 158.684C281.715 167.041 283.776 178.528 292.131 184.341L292.131 184.342Z" fill="#2F2E41"/>
<path fill-rule="evenodd" clip-rule="evenodd" d="M575.086 385.922L260.234 567.702C254.639 570.924 247.49 569.009 244.256 563.42L135.028 374.232C133.894 372.263 133.587 369.925 134.175 367.73C134.763 365.535 136.198 363.664 138.164 362.525L458.305 177.692C460.308 176.539 462.687 176.227 464.92 176.826C467.152 177.424 469.056 178.884 470.214 180.884L579.367 369.944C582.59 375.539 580.674 382.687 575.086 385.922Z" fill="#F2F2F2"/>
<path fill-rule="evenodd" clip-rule="evenodd" d="M264.209 551.901L559.414 381.464C564.84 378.331 566.699 371.394 563.566 365.969L470.859 205.395C467.726 199.969 460.789 198.11 455.364 201.243L160.158 371.68C154.732 374.812 152.874 381.749 156.007 387.175L248.714 547.749C251.846 553.174 258.783 555.033 264.209 551.901V551.901Z" fill="white"/>
<path fill-rule="evenodd" clip-rule="evenodd" d="M469.664 180.257L134.552 373.734L131.574 368.577C128.344 362.962 130.267 355.791 135.875 352.547L450.655 170.809C456.268 167.574 463.44 169.494 466.688 175.099L469.666 180.256L469.664 180.257Z" fill="#F9A826"/>
<path fill-rule="evenodd" clip-rule="evenodd" d="M145.934 356.856C145.545 356.155 145.449 355.329 145.666 354.558C145.883 353.787 146.395 353.133 147.093 352.738C147.79 352.343 148.614 352.24 149.387 352.45C150.16 352.661 150.819 353.168 151.219 353.862C151.62 354.556 151.73 355.38 151.526 356.154C151.322 356.929 150.82 357.592 150.129 357.998C149.439 358.404 148.616 358.521 147.84 358.323C147.063 358.126 146.396 357.629 145.984 356.942L145.934 356.856Z" fill="white"/>
<path fill-rule="evenodd" clip-rule="evenodd" d="M155.917 351.092C155.528 350.392 155.431 349.566 155.648 348.795C155.865 348.024 156.378 347.369 157.075 346.975C157.772 346.58 158.597 346.476 159.37 346.687C160.143 346.897 160.801 347.405 161.202 348.099C161.603 348.792 161.713 349.616 161.509 350.391C161.304 351.166 160.802 351.828 160.112 352.235C159.421 352.641 158.598 352.758 157.822 352.56C157.046 352.362 156.379 351.866 155.967 351.179L155.917 351.092Z" fill="white"/>
<path fill-rule="evenodd" clip-rule="evenodd" d="M165.899 345.329C165.51 344.629 165.413 343.803 165.63 343.032C165.847 342.261 166.36 341.606 167.057 341.211C167.754 340.817 168.579 340.713 169.352 340.924C170.125 341.134 170.783 341.642 171.184 342.336C171.584 343.029 171.695 343.853 171.491 344.628C171.286 345.403 170.784 346.065 170.094 346.472C169.403 346.878 168.58 346.995 167.804 346.797C167.028 346.599 166.361 346.103 165.949 345.416L165.899 345.329Z" fill="white"/>
<path fill-rule="evenodd" clip-rule="evenodd" d="M400.917 426.54L374.518 441.782C372.971 442.673 371.133 442.914 369.409 442.452C367.684 441.99 366.213 440.863 365.318 439.317L350.076 412.917C349.185 411.37 348.945 409.533 349.407 407.808C349.869 406.083 350.997 404.613 352.542 403.718L378.941 388.477C380.488 387.586 382.326 387.345 384.05 387.807C385.775 388.269 387.246 389.396 388.141 390.941L403.383 417.341C404.274 418.888 404.514 420.726 404.052 422.451C403.59 424.175 402.462 425.646 400.917 426.54ZM353.25 404.945C352.03 405.652 351.14 406.813 350.776 408.174C350.411 409.536 350.601 410.987 351.304 412.208L366.546 438.608C367.253 439.828 368.414 440.718 369.775 441.083C371.137 441.447 372.588 441.257 373.809 440.554L400.208 425.312C401.428 424.606 402.318 423.445 402.683 422.083C403.048 420.722 402.858 419.272 402.155 418.05L386.913 391.65C386.207 390.43 385.045 389.54 383.684 389.175C382.322 388.81 380.871 389 379.649 389.704L353.25 404.945Z" fill="#CCCCCC"/>
<path fill-rule="evenodd" clip-rule="evenodd" d="M391.445 422.186L375.483 431.401C374.995 431.683 374.414 431.759 373.87 431.613C373.325 431.467 372.861 431.112 372.578 430.624L361.235 410.977C360.954 410.488 360.878 409.908 361.024 409.364C361.17 408.819 361.526 408.355 362.014 408.072L373.58 401.395C374 401.152 374.49 401.06 374.969 401.135L381.404 402.129C382.041 402.226 382.6 402.608 382.92 403.167L392.224 419.281C392.505 419.77 392.581 420.35 392.435 420.894C392.289 421.438 391.933 421.903 391.446 422.185L391.445 422.186ZM362.723 409.3C362.56 409.394 362.441 409.549 362.393 409.731C362.344 409.912 362.369 410.106 362.462 410.269L373.805 429.915C373.899 430.078 374.055 430.197 374.236 430.245C374.418 430.294 374.612 430.268 374.775 430.174L390.736 420.959C390.899 420.865 391.018 420.71 391.067 420.528C391.116 420.346 391.09 420.152 390.996 419.989L381.693 403.876C381.64 403.784 381.568 403.705 381.48 403.645C381.393 403.585 381.293 403.546 381.188 403.53L374.751 402.535C374.591 402.511 374.428 402.541 374.288 402.622L362.723 409.3L362.723 409.3Z" fill="#CCCCCC"/>
<path fill-rule="evenodd" clip-rule="evenodd" d="M379.869 409.223L370.045 414.895C369.965 414.946 369.874 414.98 369.78 414.995C369.686 415.01 369.59 415.006 369.497 414.983C369.405 414.96 369.318 414.919 369.242 414.861C369.166 414.804 369.102 414.732 369.054 414.649C369.006 414.567 368.976 414.475 368.964 414.381C368.953 414.286 368.96 414.19 368.987 414.098C369.013 414.007 369.058 413.921 369.118 413.847C369.178 413.773 369.253 413.712 369.337 413.668L379.16 407.996C379.241 407.946 379.331 407.912 379.425 407.897C379.519 407.881 379.615 407.885 379.708 407.908C379.801 407.931 379.888 407.973 379.964 408.03C380.04 408.087 380.104 408.159 380.152 408.242C380.199 408.325 380.23 408.416 380.241 408.511C380.253 408.605 380.245 408.701 380.219 408.793C380.192 408.885 380.148 408.97 380.088 409.044C380.027 409.118 379.953 409.179 379.869 409.223Z" fill="#CCCCCC"/>
<path fill-rule="evenodd" clip-rule="evenodd" d="M381.996 412.907L372.172 418.579C372.01 418.673 371.816 418.699 371.634 418.65C371.453 418.601 371.298 418.482 371.204 418.319C371.11 418.157 371.084 417.963 371.133 417.781C371.182 417.6 371.301 417.445 371.463 417.351L381.287 411.679C381.45 411.585 381.643 411.56 381.825 411.609C382.006 411.657 382.161 411.776 382.255 411.939C382.349 412.102 382.375 412.295 382.326 412.477C382.277 412.659 382.159 412.813 381.996 412.907V412.907Z" fill="#CCCCCC"/>
<path fill-rule="evenodd" clip-rule="evenodd" d="M384.122 416.591L374.299 422.262C374.218 422.313 374.128 422.347 374.034 422.362C373.94 422.377 373.843 422.373 373.751 422.35C373.658 422.327 373.571 422.286 373.495 422.228C373.419 422.171 373.355 422.099 373.308 422.016C373.26 421.934 373.229 421.843 373.218 421.748C373.206 421.653 373.214 421.557 373.24 421.466C373.267 421.374 373.311 421.289 373.371 421.215C373.432 421.141 373.506 421.08 373.59 421.035L383.414 415.363C383.494 415.313 383.585 415.279 383.679 415.264C383.773 415.249 383.869 415.253 383.962 415.276C384.054 415.299 384.141 415.34 384.217 415.397C384.293 415.455 384.357 415.527 384.405 415.609C384.453 415.692 384.483 415.783 384.495 415.878C384.506 415.973 384.499 416.069 384.472 416.16C384.446 416.252 384.401 416.337 384.341 416.411C384.281 416.485 384.207 416.546 384.122 416.591V416.591Z" fill="#CCCCCC"/>
<path fill-rule="evenodd" clip-rule="evenodd" d="M463.539 390.385L437.139 405.627C435.592 406.518 433.755 406.759 432.03 406.297C430.306 405.835 428.835 404.708 427.941 403.162L412.699 376.763C411.808 375.215 411.567 373.378 412.029 371.653C412.491 369.929 413.618 368.458 415.163 367.564L441.563 352.322C443.11 351.431 444.948 351.19 446.673 351.652C448.397 352.114 449.868 353.241 450.763 354.786L466.005 381.186C466.896 382.733 467.137 384.571 466.674 386.295C466.212 388.02 465.085 389.491 463.539 390.385ZM415.872 368.791C414.652 369.497 413.762 370.658 413.398 372.02C413.033 373.381 413.223 374.832 413.927 376.054L429.169 402.453C429.875 403.673 431.036 404.563 432.397 404.928C433.759 405.292 435.209 405.102 436.43 404.399L462.83 389.157C464.05 388.451 464.94 387.29 465.305 385.929C465.67 384.567 465.48 383.116 464.777 381.895L449.535 355.495C448.829 354.275 447.668 353.385 446.306 353.02C444.944 352.655 443.493 352.845 442.272 353.549L415.872 368.791Z" fill="#CCCCCC"/>
<path fill-rule="evenodd" clip-rule="evenodd" d="M451.846 380.765L434.655 390.69C434.166 390.971 433.586 391.047 433.042 390.901C432.497 390.755 432.033 390.399 431.75 389.911L426.079 380.089C425.798 379.6 425.722 379.02 425.868 378.476C426.014 377.931 426.369 377.467 426.857 377.184L444.048 367.259C444.536 366.977 445.117 366.901 445.661 367.047C446.206 367.193 446.671 367.549 446.953 368.037L452.624 377.86C452.906 378.348 452.982 378.929 452.836 379.473C452.69 380.018 452.334 380.483 451.846 380.765V380.765ZM427.566 378.412C427.403 378.506 427.285 378.661 427.236 378.842C427.187 379.024 427.213 379.217 427.307 379.38L432.978 389.203C433.072 389.366 433.227 389.485 433.409 389.533C433.591 389.582 433.784 389.557 433.947 389.463L451.137 379.538C451.3 379.444 451.419 379.289 451.467 379.107C451.516 378.925 451.49 378.732 451.396 378.569L445.725 368.746C445.631 368.583 445.476 368.464 445.295 368.416C445.113 368.367 444.919 368.392 444.756 368.486L427.566 378.411L427.566 378.412Z" fill="#CCCCCC"/>
<path fill-rule="evenodd" clip-rule="evenodd" d="M440.287 380.595C439.942 380.794 439.548 380.893 439.15 380.879L426.668 380.442C426.571 380.445 426.475 380.427 426.385 380.391C426.295 380.355 426.213 380.301 426.145 380.232C426.077 380.163 426.023 380.081 425.988 379.991C425.952 379.901 425.936 379.804 425.939 379.707C425.943 379.611 425.966 379.515 426.007 379.428C426.049 379.34 426.108 379.262 426.181 379.198C426.254 379.134 426.339 379.086 426.431 379.056C426.523 379.027 426.621 379.016 426.717 379.025L439.2 379.463C439.47 379.47 439.722 379.325 439.85 379.087L445.713 368.058C445.805 367.901 445.955 367.785 446.132 367.735C446.308 367.685 446.496 367.705 446.658 367.791C446.819 367.877 446.942 368.022 446.999 368.196C447.056 368.37 447.044 368.559 446.965 368.724L441.103 379.753C440.915 380.104 440.632 380.396 440.286 380.594L440.287 380.595Z" fill="#CCCCCC"/>
<path fill-rule="evenodd" clip-rule="evenodd" d="M338.296 462.695L311.896 477.937C310.348 478.828 308.511 479.068 306.787 478.606C305.062 478.144 303.591 477.017 302.697 475.472L287.455 449.072C286.564 447.525 286.323 445.688 286.785 443.963C287.247 442.239 288.375 440.768 289.92 439.873L316.32 424.631C317.867 423.74 319.704 423.499 321.429 423.961C323.154 424.423 324.625 425.55 325.519 427.096L340.761 453.495C341.652 455.043 341.893 456.88 341.431 458.605C340.969 460.33 339.841 461.8 338.296 462.695ZM290.628 441.1C289.408 441.807 288.519 442.968 288.154 444.33C287.789 445.691 287.98 447.142 288.683 448.363L303.925 474.763C304.631 475.983 305.792 476.872 307.154 477.237C308.515 477.602 309.965 477.412 311.187 476.709L337.587 461.467C338.807 460.761 339.696 459.599 340.061 458.238C340.426 456.877 340.236 455.426 339.533 454.204L324.291 427.805C323.585 426.585 322.424 425.694 321.062 425.33C319.7 424.965 318.25 425.155 317.028 425.858L290.628 441.1Z" fill="#CCCCCC"/>
<path fill-rule="evenodd" clip-rule="evenodd" d="M326.602 453.075L309.411 463C308.923 463.281 308.342 463.357 307.798 463.211C307.253 463.065 306.788 462.709 306.506 462.221L300.835 452.399C300.553 451.91 300.477 451.33 300.623 450.785C300.769 450.24 301.125 449.776 301.613 449.493L318.804 439.568C319.293 439.287 319.873 439.211 320.418 439.357C320.962 439.503 321.427 439.859 321.71 440.347L327.381 450.169C327.662 450.658 327.738 451.238 327.592 451.783C327.446 452.328 327.09 452.792 326.602 453.075V453.075ZM302.322 450.721C302.16 450.815 302.041 450.97 301.992 451.152C301.944 451.333 301.969 451.527 302.063 451.69L307.734 461.512C307.828 461.675 307.983 461.794 308.165 461.843C308.347 461.892 308.541 461.866 308.704 461.772L325.893 451.848C326.056 451.753 326.175 451.598 326.224 451.417C326.272 451.235 326.246 451.041 326.152 450.878L320.481 441.056C320.387 440.893 320.232 440.774 320.05 440.725C319.869 440.676 319.675 440.702 319.512 440.796L302.322 450.72L302.322 450.721Z" fill="#CCCCCC"/>
<path fill-rule="evenodd" clip-rule="evenodd" d="M323.877 454.648L311.523 461.781C311.307 461.905 311.063 461.971 310.814 461.971C310.565 461.971 310.32 461.905 310.105 461.781C309.889 461.656 309.71 461.477 309.586 461.262C309.461 461.046 309.396 460.802 309.396 460.553L309.395 451.958C309.395 451.71 309.461 451.465 309.585 451.249C309.71 451.034 309.889 450.855 310.104 450.73C310.32 450.606 310.565 450.54 310.813 450.54C311.062 450.54 311.307 450.606 311.522 450.73L316.329 453.506L316.329 450.29C316.329 450.041 316.395 449.797 316.519 449.581C316.644 449.365 316.823 449.186 317.038 449.062C317.254 448.938 317.498 448.872 317.747 448.872C317.996 448.872 318.241 448.938 318.456 449.062L323.877 452.192C324.093 452.316 324.272 452.495 324.396 452.711C324.521 452.926 324.586 453.171 324.586 453.42C324.586 453.669 324.521 453.913 324.396 454.129C324.272 454.344 324.093 454.523 323.877 454.648V454.648ZM323.168 453.42L317.747 450.29L317.747 454.733C317.747 454.858 317.714 454.98 317.652 455.088C317.59 455.196 317.5 455.285 317.393 455.347C317.285 455.41 317.163 455.442 317.038 455.442C316.914 455.442 316.791 455.41 316.684 455.347L310.813 451.958L310.814 460.553L323.168 453.42V453.42Z" fill="#CCCCCC"/>
<path fill-rule="evenodd" clip-rule="evenodd" d="M317.81 444.937C317.636 444.609 317.598 444.225 317.703 443.869C317.809 443.512 318.05 443.212 318.375 443.032C318.701 442.852 319.084 442.806 319.442 442.906C319.8 443.005 320.105 443.241 320.291 443.563C320.477 443.885 320.529 444.267 320.436 444.627C320.343 444.987 320.112 445.296 319.793 445.487C319.475 445.679 319.094 445.738 318.732 445.651C318.371 445.564 318.057 445.339 317.86 445.024L317.81 444.937Z" fill="#CCCCCC"/>
<path fill-rule="evenodd" clip-rule="evenodd" d="M705.755 436.01L698.227 440.356L677.885 413.391L688.994 406.978L705.755 436.01Z" fill="#FFB8B8"/>
<path fill-rule="evenodd" clip-rule="evenodd" d="M711.886 442.199L687.616 456.21L687.439 455.902C684.427 450.685 686.215 444.014 691.432 441.002L706.255 432.444L711.887 442.198L711.886 442.199Z" fill="#2F2E41"/>
<path fill-rule="evenodd" clip-rule="evenodd" d="M736.452 418.287L728.924 422.633L708.582 395.668L719.691 389.255L736.452 418.287Z" fill="#FFB8B8"/>
<path fill-rule="evenodd" clip-rule="evenodd" d="M742.583 424.476L718.313 438.487L718.136 438.179C715.124 432.962 716.912 426.291 722.129 423.279L736.952 414.721L742.583 424.476Z" fill="#2F2E41"/>
<path fill-rule="evenodd" clip-rule="evenodd" d="M726.929 407.005L718.733 408.909C718.122 409.052 717.484 409.011 716.897 408.792C716.309 408.572 715.8 408.185 715.432 407.678L673.371 349.836C673.323 349.764 673.249 349.714 673.165 349.694C673.081 349.675 672.993 349.688 672.918 349.731C672.839 349.768 672.778 349.833 672.747 349.913C672.715 349.994 672.717 350.083 672.75 350.163L696.317 416.122C696.46 416.523 696.522 416.948 696.498 417.372C696.475 417.796 696.367 418.212 696.181 418.594C695.994 418.976 695.734 419.317 695.414 419.597C695.094 419.876 694.721 420.09 694.318 420.223L684.349 423.531C683.617 423.772 682.822 423.74 682.112 423.442C681.401 423.144 680.821 422.599 680.479 421.909L630.632 320.277L672.737 289.508L729.062 402.474C729.276 402.905 729.391 403.379 729.396 403.861C729.401 404.343 729.297 404.82 729.092 405.256C728.887 405.691 728.586 406.075 728.211 406.378C727.836 406.681 727.398 406.896 726.929 407.005V407.005Z" fill="#2F2E41"/>
<path fill-rule="evenodd" clip-rule="evenodd" d="M592.247 208.651C589.951 204.649 589.338 199.899 590.542 195.445C591.745 190.992 594.668 187.198 598.667 184.896C602.665 182.595 607.414 181.975 611.869 183.173C616.325 184.37 620.123 187.287 622.43 191.282C624.737 195.278 625.364 200.025 624.173 204.483C622.982 208.94 620.071 212.742 616.079 215.055C612.086 217.367 607.339 218.001 602.88 216.817C598.421 215.632 594.615 212.726 592.297 208.737L592.247 208.651Z" fill="#FFB8B8"/>
<path fill-rule="evenodd" clip-rule="evenodd" d="M630.895 320.892L605.238 253.968C603.874 250.409 603.283 246.601 603.505 242.797C603.727 238.993 604.757 235.28 606.526 231.904C608.295 228.529 610.762 225.569 613.764 223.221C616.766 220.874 620.233 219.192 623.935 218.289C637.328 214.981 651.04 222.4 655.601 235.42L677.022 296.047L630.895 320.891L630.895 320.892Z" fill="#F9A826"/>
<path fill-rule="evenodd" clip-rule="evenodd" d="M676.085 309.426C676.551 308.494 676.807 307.471 676.835 306.429C676.863 305.387 676.662 304.352 676.246 303.396C675.831 302.441 675.211 301.588 674.43 300.898C673.649 300.207 672.727 299.697 671.728 299.402L670.539 274.095L659.901 281.85L662.66 304.691C662.274 306.403 662.53 308.198 663.379 309.735C664.229 311.271 665.612 312.442 667.268 313.026C668.924 313.61 670.736 313.566 672.361 312.903C673.986 312.239 675.312 311.002 676.085 309.426V309.426Z" fill="#FFB8B8"/>
<path fill-rule="evenodd" clip-rule="evenodd" d="M670.825 295.337C670.223 295.58 669.561 295.633 668.928 295.49L663.021 294.155C662.382 294.009 661.803 293.67 661.363 293.185C660.923 292.699 660.642 292.09 660.56 291.44L657.723 268.751L635.818 233.331C633.67 228.076 636.188 222.077 641.442 219.929C646.696 217.781 652.695 220.3 654.843 225.553L669.793 247.138C674.332 253.688 676.337 261.664 675.435 269.582L672.801 292.739C672.736 293.31 672.518 293.852 672.17 294.31C671.823 294.767 671.358 295.122 670.825 295.337V295.337Z" fill="#F9A826"/>
<path fill-rule="evenodd" clip-rule="evenodd" d="M515.797 241.95C516.474 242.742 517.316 243.377 518.264 243.809C519.213 244.241 520.244 244.459 521.286 244.449C522.328 244.439 523.356 244.201 524.296 243.751C525.236 243.301 526.066 242.651 526.727 241.846L550.493 250.618L547.5 237.798L525.391 231.434C523.965 230.413 522.213 229.951 520.469 230.135C518.724 230.32 517.108 231.137 515.926 232.433C514.744 233.729 514.078 235.413 514.054 237.167C514.03 238.921 514.65 240.622 515.797 241.95V241.95Z" fill="#FFB8B8"/>
<path fill-rule="evenodd" clip-rule="evenodd" d="M530.822 242.599C530.832 241.95 531.041 241.32 531.42 240.792L534.952 235.874C535.336 235.343 535.874 234.942 536.493 234.725C537.112 234.509 537.782 234.489 538.413 234.666L560.412 240.901L601.571 234.538C607.246 234.609 611.789 239.267 611.718 244.942C611.647 250.618 606.989 255.161 601.314 255.09L575.609 260.443C567.807 262.068 559.681 260.805 552.741 256.887L532.444 245.431C531.944 245.148 531.529 244.736 531.243 244.238C530.958 243.74 530.812 243.174 530.821 242.6L530.822 242.599Z" fill="#F9A826"/>
<path fill-rule="evenodd" clip-rule="evenodd" d="M649.794 245.256L660.522 265.257L660.559 291.439L657.358 264.086L649.794 245.255L649.794 245.256Z" fill="black"/>
<path fill-rule="evenodd" clip-rule="evenodd" d="M607.284 203.863C606.408 204.532 605.319 204.862 604.219 204.789C603.118 204.717 602.082 204.247 601.301 203.468C600.45 202.544 599.362 201.87 598.156 201.517C596.95 201.164 595.671 201.147 594.456 201.465C591.324 202.431 588.696 205.685 585.458 204.76C584.748 204.532 584.103 204.138 583.575 203.611C583.046 203.085 582.651 202.44 582.421 201.73C581.618 199.479 582.187 197.099 583.061 194.953C584.91 190.45 588.076 186.61 592.145 183.937C594.288 182.616 596.531 181.466 598.854 180.496C601.199 179.333 603.674 178.45 606.226 177.866C609.234 177.372 612.317 177.644 615.192 178.657C618.066 179.67 620.639 181.391 622.672 183.662C624.664 185.967 626.128 188.679 626.963 191.609C627.798 194.538 627.984 197.615 627.507 200.623C626.948 204.246 625.512 207.678 623.323 210.618C622.818 211.347 622.045 211.847 621.173 212.009C618.941 212.335 617.939 209.915 617.901 207.937C617.86 205.82 618.325 203.479 616.485 201.936C615.605 201.236 614.494 200.894 613.373 200.978C611.035 201.1 609.143 202.484 607.332 203.827L607.284 203.863Z" fill="#2F2E41"/>
<path fill-rule="evenodd" clip-rule="evenodd" d="M522.054 264.424L335.415 372.18C329.82 375.402 322.672 373.487 319.437 367.899L296.397 327.992C293.175 322.397 295.09 315.248 300.678 312.014L487.316 204.259C492.912 201.036 500.059 202.952 503.295 208.54L526.335 248.446C529.556 254.042 527.642 261.19 522.053 264.425L522.054 264.424Z" fill="white"/>
<path fill-rule="evenodd" clip-rule="evenodd" d="M522.23 264.731L335.593 372.486C329.828 375.807 322.464 373.833 319.13 368.076L296.09 328.169C292.771 322.404 294.744 315.039 300.502 311.707L487.139 203.952C492.905 200.631 500.27 202.604 503.602 208.362L526.642 248.269C529.962 254.034 527.989 261.399 522.23 264.731V264.731ZM301.211 312.934C296.131 315.875 294.39 322.373 297.318 327.46L320.358 367.367C323.3 372.447 329.798 374.188 334.884 371.258L521.521 263.503C526.602 260.563 528.343 254.065 525.414 248.978L502.374 209.071C499.433 203.991 492.936 202.25 487.848 205.179L301.211 312.934Z" fill="#3F3D56"/>
<path fill-rule="evenodd" clip-rule="evenodd" d="M493.666 267.716L352.461 349.241C346.865 352.464 339.717 350.548 336.481 344.96L324.43 324.087C321.208 318.491 323.123 311.343 328.712 308.108L469.918 226.583C475.514 223.36 482.661 225.276 485.897 230.864L497.948 251.737C501.17 257.333 499.255 264.481 493.666 267.716Z" fill="#F2F2F2"/>
<path fill-rule="evenodd" clip-rule="evenodd" d="M357.193 315.24C355.352 312.024 354.861 308.209 355.83 304.632C356.799 301.055 359.147 298.009 362.36 296.161C365.573 294.314 369.387 293.817 372.965 294.78C376.544 295.742 379.595 298.085 381.447 301.294C383.3 304.504 383.804 308.317 382.848 311.897C381.892 315.478 379.555 318.532 376.349 320.391C373.143 322.25 369.33 322.76 365.748 321.811C362.166 320.861 359.107 318.529 357.243 315.326L357.193 315.24Z" fill="#FF6584"/>
<path fill-rule="evenodd" clip-rule="evenodd" d="M484.186 271.56L458.806 267.091L433.865 262.699C433.206 262.583 432.528 262.703 431.95 263.039C431.372 263.374 430.931 263.903 430.704 264.532L422.129 288.362L420.034 294.182L410.877 292.57L383.051 287.67C382.393 287.554 381.715 287.674 381.137 288.01C380.559 288.345 380.118 288.873 379.892 289.502L370.325 316.087L360.607 343.09C360.558 343.227 360.552 343.376 360.59 343.516C360.628 343.656 360.708 343.781 360.82 343.874C360.932 343.968 361.069 344.024 361.214 344.036C361.359 344.048 361.504 344.016 361.63 343.943L400.502 321.401L412.807 314.265L412.744 314.437L449.422 293.166L484.419 272.872C484.545 272.799 484.645 272.689 484.706 272.557C484.767 272.425 484.786 272.278 484.761 272.135C484.735 271.992 484.667 271.86 484.564 271.757C484.461 271.654 484.329 271.586 484.186 271.56L484.186 271.56Z" fill="#3F3D56"/>
<path fill-rule="evenodd" clip-rule="evenodd" d="M775.829 406.459L657.952 474.515C657.789 474.609 657.595 474.635 657.414 474.586C657.232 474.537 657.077 474.419 656.983 474.256C656.889 474.093 656.864 473.899 656.912 473.718C656.961 473.536 657.08 473.381 657.243 473.287L775.12 405.231C775.283 405.137 775.476 405.111 775.658 405.16C775.84 405.209 775.994 405.327 776.089 405.49C776.183 405.653 776.208 405.847 776.159 406.028C776.111 406.21 775.992 406.365 775.829 406.459V406.459Z" fill="#CCCCCC"/>
<path fill-rule="evenodd" clip-rule="evenodd" d="M421.611 177.476C420.661 176.962 419.616 176.647 418.539 176.551C417.463 176.454 416.379 176.578 415.352 176.914C414.976 177.037 414.61 177.191 414.259 177.373L343.337 162.559C341.873 162.145 340.31 162.266 338.928 162.902C338.652 163.022 338.386 163.164 338.134 163.328C337.083 164.001 336.251 164.964 335.74 166.102C335.228 167.239 335.058 168.502 335.252 169.734C335.446 170.966 335.995 172.115 336.831 173.04C337.667 173.966 338.755 174.627 339.962 174.945L366.884 180.217L411.09 188.871C412.115 190.478 413.681 191.665 415.504 192.218C417.328 192.771 419.289 192.654 421.034 191.888C422.391 191.303 423.556 190.347 424.395 189.129C425.064 188.172 425.517 187.081 425.724 185.931C426.018 184.268 425.779 182.555 425.04 181.036C424.301 179.517 423.101 178.271 421.611 177.476V177.476Z" fill="#FFB8B8"/>
<path fill-rule="evenodd" clip-rule="evenodd" d="M364.873 263.974L354.207 246.506L345.35 232.015L339.157 221.872L327.08 202.102C326.361 201.085 325.362 200.299 324.205 199.841C323.047 199.382 321.781 199.27 320.561 199.519C319.341 199.767 318.22 200.366 317.334 201.241C316.448 202.116 315.837 203.23 315.574 204.447C315.509 204.728 315.469 205.014 315.454 205.301C315.323 206.821 315.744 208.336 316.641 209.57L334.63 238.204L343.665 252.594L355.195 270.945C355.152 271.337 355.136 271.732 355.148 272.126C355.189 273.206 355.45 274.267 355.914 275.243C356.377 276.219 357.035 277.091 357.846 277.805C358.695 278.555 359.693 279.117 360.775 279.453C361.856 279.789 362.997 279.893 364.121 279.756C365.246 279.62 366.329 279.246 367.299 278.661C368.269 278.076 369.103 277.292 369.748 276.36C370.497 275.279 370.968 274.029 371.12 272.722C371.271 271.415 371.098 270.09 370.616 268.866C370.134 267.641 369.358 266.554 368.356 265.701C367.355 264.848 366.158 264.255 364.873 263.974V263.974Z" fill="#FFB8B8"/>
<path fill-rule="evenodd" clip-rule="evenodd" d="M378.012 189.468L366.884 180.217L348.865 165.228C347.505 164.091 345.898 163.289 344.172 162.885C342.446 162.481 340.65 162.487 338.927 162.903C337.334 163.274 335.841 163.985 334.549 164.988C333.257 165.991 332.198 167.262 331.443 168.713L316.452 197.374C313.594 202.824 315.573 209.559 320.926 212.596C326.837 216.003 332.922 219.1 339.157 221.872C344.08 224.031 349.442 221.467 353.878 227.092L371.32 217.022L379.824 190.976L378.012 189.468Z" fill="#CCCCCC"/>
<path fill-rule="evenodd" clip-rule="evenodd" d="M167.628 483.433C165.463 479.657 164.885 475.177 166.021 470.975C167.157 466.774 169.914 463.195 173.687 461.024C177.459 458.854 181.939 458.269 186.143 459.399C190.346 460.529 193.929 463.28 196.105 467.05C198.281 470.819 198.873 475.298 197.749 479.503C196.626 483.707 193.88 487.295 190.114 489.477C186.348 491.659 181.87 492.257 177.663 491.14C173.457 490.023 169.865 487.282 167.678 483.52L167.628 483.433Z" fill="#A0616A"/>
<path fill-rule="evenodd" clip-rule="evenodd" d="M211.176 445.35C211.38 445.381 211.584 445.42 211.788 445.47C212.796 445.708 213.744 446.157 214.567 446.787C215.391 447.417 216.072 448.213 216.566 449.125C217.06 450.036 217.356 451.042 217.434 452.075C217.512 453.109 217.371 454.148 217.02 455.123C216.937 455.35 216.844 455.571 216.738 455.788L236.468 487.738C237.11 488.786 237.396 490.013 237.285 491.237C237.174 492.462 236.672 493.617 235.852 494.533L235.8 494.579L211.031 512.628C209.67 513.601 207.978 513.993 206.328 513.718C204.678 513.444 203.204 512.525 202.231 511.164C201.258 509.803 200.866 508.111 201.14 506.46C201.415 504.81 202.334 503.336 203.695 502.364L221.552 489.845L208.553 459.816C208.232 459.751 207.915 459.663 207.606 459.553C205.889 458.934 204.464 457.699 203.607 456.088C202.75 454.478 202.521 452.606 202.966 450.837C203.41 449.067 204.497 447.526 206.014 446.512C207.531 445.498 209.37 445.084 211.176 445.35V445.35Z" fill="#A0616A"/>
<path fill-rule="evenodd" clip-rule="evenodd" d="M319.644 659.769L326.746 655.669L314.31 626.33L303.829 632.381L319.644 659.769Z" fill="#A0616A"/>
<path fill-rule="evenodd" clip-rule="evenodd" d="M316.494 658.497L330.479 650.423C335.401 647.581 341.695 649.267 344.536 654.189L344.703 654.478L321.808 667.699L316.495 658.497L316.494 658.497Z" fill="#2F2E41"/>
<path fill-rule="evenodd" clip-rule="evenodd" d="M243.396 690.701L251.594 690.811L255.921 659.239L243.821 659.077L243.396 690.701Z" fill="#A0616A"/>
<path fill-rule="evenodd" clip-rule="evenodd" d="M241.34 687.996L257.487 688.213C263.17 688.289 267.715 692.958 267.639 698.641L267.635 698.976L241.198 698.621L241.341 687.996L241.34 687.996Z" fill="#2F2E41"/>
<path fill-rule="evenodd" clip-rule="evenodd" d="M322.835 645.028L314.884 649.619C314.241 649.992 313.482 650.113 312.755 649.959C312.028 649.805 311.383 649.386 310.947 648.785L259.425 578.06C259.295 577.882 259.111 577.751 258.899 577.688C258.688 577.625 258.462 577.633 258.256 577.712C258.05 577.79 257.875 577.934 257.76 578.122C257.644 578.31 257.593 578.53 257.615 578.75L261.642 619.122L260.142 675.653C260.12 676.38 259.836 677.074 259.344 677.609C258.851 678.143 258.183 678.482 257.461 678.564L244.635 679.969C244.211 680.016 243.781 679.972 243.376 679.84C242.97 679.708 242.597 679.491 242.281 679.204C241.965 678.916 241.714 678.565 241.545 678.174C241.375 677.782 241.291 677.359 241.297 676.932L242.081 623.934L230.128 586.561C219.544 573.472 216.916 546.444 216.89 546.172L216.88 546.04L237.638 520.083L237.868 520.17C268.472 548.761 296.473 582.381 324.054 641.141C324.371 641.824 324.422 642.601 324.196 643.32C323.971 644.039 323.486 644.648 322.835 645.029L322.835 645.028Z" fill="#2F2E41"/>
<path fill-rule="evenodd" clip-rule="evenodd" d="M217.824 550.172L217.548 549.982C217.416 549.891 204.196 540.759 191.842 529.974C189.459 527.886 187.535 525.325 186.193 522.454C184.851 519.583 184.12 516.464 184.046 513.296C183.974 510.093 184.569 506.91 185.792 503.949C187.015 500.987 188.839 498.312 191.15 496.093C199.479 488.196 212.336 487.588 221.373 494.664C230.28 501.675 234.736 512.075 238.06 520.357L238.126 520.523L238.026 520.67L217.824 550.172V550.172Z" fill="#3F3D56"/>
<path fill-rule="evenodd" clip-rule="evenodd" d="M194.513 457.312L171.924 470.354L166.238 460.507C170.059 455.675 173.945 451.199 178.981 453.15C184.42 450.01 191.373 451.873 194.513 457.312Z" fill="#2F2E41"/>
<path fill-rule="evenodd" clip-rule="evenodd" d="M163.985 459.492C150.481 467.288 156.474 486.398 161.987 495.947C165.062 501.273 168.57 501.788 172.727 500.247L169.948 492.346L177.371 497.975C178.437 497.366 179.542 496.7 180.688 496.01L180.487 493.213L184.093 493.992C193.581 488.532 202.041 485.491 196.555 475.989C191.042 466.44 177.954 451.427 163.985 459.492V459.492Z" fill="#2F2E41"/>
<path fill-rule="evenodd" clip-rule="evenodd" d="M356.955 648.296L239.079 716.352C238.998 716.398 238.909 716.429 238.817 716.441C238.724 716.453 238.631 716.447 238.541 716.423C238.451 716.399 238.366 716.357 238.292 716.3C238.219 716.244 238.157 716.173 238.11 716.092C238.063 716.012 238.033 715.923 238.021 715.83C238.009 715.738 238.015 715.644 238.039 715.554C238.063 715.464 238.105 715.38 238.162 715.306C238.218 715.232 238.289 715.17 238.37 715.124L356.246 647.068C356.409 646.974 356.602 646.948 356.784 646.997C356.966 647.046 357.12 647.165 357.214 647.327C357.309 647.49 357.334 647.684 357.285 647.865C357.237 648.047 357.118 648.202 356.955 648.296Z" fill="#CCCCCC"/>
<path fill-rule="evenodd" clip-rule="evenodd" d="M242.554 445.03L216.155 460.271C214.608 461.162 212.77 461.403 211.046 460.941C209.321 460.479 207.85 459.352 206.955 457.807L191.713 431.407C190.823 429.86 190.582 428.022 191.044 426.298C191.506 424.573 192.634 423.102 194.179 422.208L220.578 406.966C222.125 406.075 223.963 405.834 225.688 406.296C227.412 406.758 228.883 407.885 229.778 409.431L245.02 435.831C245.911 437.378 246.152 439.215 245.689 440.94C245.227 442.665 244.1 444.135 242.554 445.03V445.03Z" fill="white"/>
<path fill-rule="evenodd" clip-rule="evenodd" d="M242.554 445.03L216.155 460.271C214.608 461.162 212.77 461.403 211.046 460.941C209.321 460.479 207.85 459.352 206.955 457.807L191.713 431.407C190.823 429.86 190.582 428.022 191.044 426.298C191.506 424.573 192.634 423.102 194.179 422.208L220.578 406.966C222.125 406.075 223.963 405.834 225.688 406.296C227.412 406.758 228.883 407.885 229.778 409.431L245.02 435.831C245.911 437.378 246.152 439.215 245.689 440.94C245.227 442.665 244.1 444.135 242.554 445.03V445.03ZM194.888 423.435C193.668 424.141 192.778 425.302 192.413 426.664C192.048 428.026 192.238 429.476 192.941 430.698L208.183 457.098C208.89 458.318 210.051 459.208 211.413 459.573C212.774 459.938 214.225 459.748 215.447 459.044L241.846 443.803C243.066 443.096 243.956 441.935 244.321 440.574C244.685 439.212 244.495 437.761 243.792 436.54L228.55 410.14C227.844 408.92 226.682 408.03 225.321 407.665C223.959 407.3 222.508 407.49 221.287 408.193L194.888 423.435Z" fill="#3F3D56"/>
<path fill-rule="evenodd" clip-rule="evenodd" d="M231.746 436.944L214.556 446.869C214.067 447.15 213.487 447.226 212.943 447.08C212.399 446.934 211.935 446.579 211.652 446.091L204.208 433.198C203.927 432.709 203.851 432.129 203.997 431.585C204.143 431.041 204.498 430.576 204.986 430.294L209.825 427.5C210.139 427.317 210.495 427.218 210.859 427.212C211.222 427.207 211.581 427.295 211.9 427.469L214.516 428.884L223.948 423.438C224.437 423.157 225.018 423.081 225.562 423.227C226.107 423.373 226.572 423.728 226.854 424.216L232.526 434.04C232.807 434.528 232.882 435.109 232.736 435.653C232.59 436.198 232.234 436.662 231.746 436.944V436.944Z" fill="#F9A826"/>
<path fill-rule="evenodd" clip-rule="evenodd" d="M234.948 443.781C235.879 444.346 236.673 445.111 237.273 446.021C237.872 446.931 238.263 447.962 238.415 449.041C238.568 450.12 238.479 451.219 238.155 452.259C237.831 453.299 237.28 454.255 236.542 455.056C236.379 455.234 236.205 455.401 236.024 455.559L241.81 492.661C241.995 493.876 241.783 495.119 241.206 496.204C240.629 497.289 239.717 498.159 238.606 498.685L238.541 498.708L208.708 505.73C207.9 505.913 207.064 505.934 206.247 505.793C205.431 505.653 204.65 505.352 203.95 504.91C203.25 504.468 202.643 503.891 202.166 503.215C201.688 502.538 201.348 501.774 201.166 500.966C200.983 500.157 200.962 499.321 201.103 498.505C201.243 497.689 201.543 496.908 201.986 496.208C202.428 495.507 203.004 494.901 203.681 494.423C204.358 493.945 205.122 493.606 205.93 493.423L227.246 488.815L226.918 456.095C226.647 455.91 226.389 455.706 226.147 455.485C224.806 454.249 223.972 452.558 223.807 450.741C223.642 448.924 224.158 447.111 225.254 445.653C226.35 444.195 227.949 443.196 229.74 442.85C231.531 442.504 233.387 442.836 234.948 443.781V443.781Z" fill="#A0616A"/>
</g>
<g clip-path="url(#clip1_1_208)">
<path fill-rule="evenodd" clip-rule="evenodd" d="M473.631 481C472.96 481 472.416 481.565 472.415 482.262V525.334C472.415 526.031 472.96 526.596 473.631 526.597H615.047C615.718 526.596 616.262 526.031 616.263 525.334V482.262C616.262 481.565 615.718 481 615.047 481H473.631Z" fill="#E6E6E6"/>
<path fill-rule="evenodd" clip-rule="evenodd" d="M475.462 523.433H613.215V484.163H475.462V523.433Z" fill="white"/>
<path fill-rule="evenodd" clip-rule="evenodd" d="M595.827 515.285C594.715 515.285 593.813 516.222 593.813 517.378C593.813 518.533 594.715 519.47 595.827 519.47H603.884C604.996 519.47 605.898 518.533 605.898 517.378C605.898 516.222 604.996 515.286 603.884 515.286H595.827V515.285Z" fill="#F9A826"/>
<path fill-rule="evenodd" clip-rule="evenodd" d="M512.892 511.228H605.898V511.778H512.892V511.228Z" fill="#E6E6E6"/>
<path fill-rule="evenodd" clip-rule="evenodd" d="M481.719 503.698C481.732 500.471 482.977 497.381 485.181 495.106C487.385 492.831 490.368 491.557 493.475 491.564C496.582 491.571 499.56 492.857 501.755 495.141C503.95 497.426 505.183 500.521 505.183 503.748C505.183 506.975 503.95 510.07 501.755 512.355C499.56 514.639 496.582 515.925 493.475 515.932C490.368 515.939 487.385 514.665 485.181 512.39C482.977 510.115 481.732 507.025 481.719 503.798V503.698Z" fill="#E6E6E6"/>
<path fill-rule="evenodd" clip-rule="evenodd" d="M513.04 508.155L512.746 507.697L522.411 501.005L529.038 504.309L538.57 497.984L538.7 498.041L557.533 506.385L572.634 498.681L587.298 504.855L605.724 508.745L606.075 509.157L587.404 505.494L572.654 499.284L557.548 506.99L538.619 498.604L529.074 504.938L522.452 501.637L513.04 508.155V508.155Z" fill="#3F3D56"/>
<path fill-rule="evenodd" clip-rule="evenodd" d="M514.614 515.575C513.663 515.574 512.892 516.375 512.892 517.363C512.892 518.351 513.662 519.152 514.614 519.152H532.632C533.584 519.167 534.367 518.379 534.382 517.392C534.397 516.404 533.639 515.59 532.688 515.574H514.614V515.575Z" fill="#E6E6E6"/>
<path fill-rule="evenodd" clip-rule="evenodd" d="M498.169 503.647C498.105 503.58 498.028 503.526 497.943 503.489C497.857 503.452 497.765 503.433 497.672 503.433C497.579 503.433 497.487 503.452 497.402 503.489C497.316 503.526 497.239 503.58 497.175 503.647L494.155 506.784V499.049C494.157 498.955 494.14 498.861 494.105 498.773C494.071 498.685 494.019 498.605 493.954 498.537C493.889 498.47 493.81 498.415 493.724 498.378C493.637 498.34 493.544 498.32 493.45 498.318C493.26 498.322 493.08 498.401 492.948 498.538C492.816 498.675 492.744 498.858 492.747 499.048V506.784L489.727 503.647C489.663 503.579 489.586 503.525 489.501 503.488C489.415 503.451 489.323 503.432 489.23 503.431C489.137 503.431 489.045 503.45 488.959 503.486C488.874 503.523 488.796 503.577 488.732 503.644C488.599 503.783 488.524 503.968 488.524 504.16C488.523 504.353 488.597 504.538 488.729 504.678L488.732 504.68L492.953 509.064C493.228 509.35 493.673 509.35 493.948 509.064L498.169 504.68C498.301 504.541 498.375 504.356 498.375 504.163C498.375 503.971 498.301 503.786 498.169 503.647V503.647Z" fill="white"/>
<path fill-rule="evenodd" clip-rule="evenodd" d="M529.266 549.981C528.596 549.981 528.051 550.546 528.051 551.244V594.315C528.051 595.012 528.595 595.577 529.266 595.578H670.683C671.354 595.578 671.898 595.012 671.899 594.315V551.245C671.898 550.547 671.354 549.982 670.683 549.982H529.266V549.981Z" fill="#E6E6E6"/>
<path fill-rule="evenodd" clip-rule="evenodd" d="M531.098 592.414H668.851V553.144H531.098V592.414Z" fill="white"/>
<path fill-rule="evenodd" clip-rule="evenodd" d="M651.463 584.268C650.351 584.268 649.449 585.204 649.449 586.36C649.449 587.515 650.351 588.452 651.463 588.452H659.519C660.632 588.452 661.533 587.515 661.533 586.36C661.533 585.204 660.632 584.268 659.519 584.268H651.463Z" fill="#F9A826"/>
<path fill-rule="evenodd" clip-rule="evenodd" d="M568.528 580.21H661.534V580.76H568.528V580.21Z" fill="#E6E6E6"/>
<path fill-rule="evenodd" clip-rule="evenodd" d="M537.354 572.68C537.367 569.453 538.612 566.363 540.816 564.088C543.02 561.813 546.003 560.539 549.11 560.546C552.217 560.553 555.195 561.839 557.39 564.123C559.585 566.408 560.818 569.503 560.818 572.73C560.818 575.957 559.585 579.052 557.39 581.337C555.195 583.621 552.217 584.907 549.11 584.914C546.003 584.921 543.02 583.647 540.816 581.372C538.612 579.097 537.367 576.007 537.354 572.78V572.68Z" fill="#F9A826"/>
<path fill-rule="evenodd" clip-rule="evenodd" d="M568.675 577.136L568.381 576.679L578.045 569.987L584.673 573.291L594.206 566.966L594.334 567.023L613.168 575.367L628.27 567.663L642.934 573.837L661.359 556.888L661.71 557.3L643.039 574.474L628.29 568.264L613.184 575.971L594.255 567.585L584.71 573.918L578.09 570.618L568.675 577.136V577.136Z" fill="#3F3D56"/>
<path fill-rule="evenodd" clip-rule="evenodd" d="M570.25 584.555C569.299 584.539 568.515 585.327 568.5 586.315C568.484 587.303 569.243 588.117 570.194 588.133H588.269C589.219 588.133 589.991 587.332 589.991 586.344C589.991 585.356 589.22 584.555 588.269 584.555H570.25Z" fill="#E6E6E6"/>
<path fill-rule="evenodd" clip-rule="evenodd" d="M544.367 572.931C544.642 573.216 545.087 573.216 545.362 572.931L548.382 569.794V577.529C548.382 577.933 548.698 578.26 549.086 578.26C549.276 578.256 549.457 578.177 549.589 578.041C549.721 577.904 549.793 577.72 549.79 577.53V569.794L552.81 572.931C553.085 573.216 553.53 573.216 553.805 572.931C553.937 572.792 554.011 572.607 554.011 572.415C554.011 572.222 553.937 572.037 553.805 571.898L549.584 567.514C549.52 567.446 549.443 567.392 549.357 567.356C549.272 567.319 549.18 567.3 549.087 567.3C548.993 567.3 548.901 567.319 548.816 567.356C548.73 567.392 548.653 567.446 548.589 567.514L544.367 571.898C544.235 572.037 544.161 572.222 544.161 572.415C544.161 572.607 544.235 572.792 544.367 572.931V572.931Z" fill="white"/>
<path fill-rule="evenodd" clip-rule="evenodd" d="M455.216 618.962C454.545 618.963 454.001 619.528 454 620.225V663.297C454 663.994 454.545 664.559 455.216 664.56H596.633C597.304 664.559 597.848 663.994 597.849 663.297V620.225C597.849 619.528 597.304 618.963 596.633 618.962H455.217H455.216Z" fill="#E6E6E6"/>
<path fill-rule="evenodd" clip-rule="evenodd" d="M457.047 661.395H594.801V622.127H457.047V661.396V661.395Z" fill="white"/>
<path fill-rule="evenodd" clip-rule="evenodd" d="M577.413 653.249C576.3 653.249 575.398 654.186 575.398 655.341C575.398 656.496 576.3 657.433 577.412 657.433H585.469C586.582 657.433 587.483 656.496 587.483 655.341C587.483 654.186 586.582 653.249 585.469 653.249H577.412H577.413Z" fill="#F9A826"/>
<path fill-rule="evenodd" clip-rule="evenodd" d="M494.477 649.192H587.484V649.742H494.477V649.192Z" fill="#E6E6E6"/>
<path fill-rule="evenodd" clip-rule="evenodd" d="M463.304 641.661C463.317 638.434 464.562 635.344 466.766 633.069C468.97 630.794 471.953 629.52 475.06 629.527C478.167 629.534 481.145 630.82 483.34 633.104C485.535 635.389 486.768 638.484 486.768 641.711C486.768 644.938 485.535 648.033 483.34 650.318C481.145 652.602 478.167 653.888 475.06 653.895C471.953 653.902 468.97 652.628 466.766 650.353C464.562 648.078 463.317 644.988 463.304 641.761V641.661Z" fill="#F9A826"/>
<path fill-rule="evenodd" clip-rule="evenodd" d="M494.624 646.118L494.33 645.66L503.995 638.968L510.622 642.272L520.155 635.945L539.118 644.346L554.218 636.642L568.881 642.818L587.306 635.131L587.658 635.543L568.988 643.456L554.24 637.246L539.133 644.953L520.205 636.567L510.66 642.901L504.038 639.601L494.624 646.118V646.118Z" fill="#3F3D56"/>
<path fill-rule="evenodd" clip-rule="evenodd" d="M496.199 653.537C495.249 653.537 494.477 654.337 494.477 655.325C494.477 656.313 495.248 657.115 496.199 657.115L514.218 657.114C515.168 657.13 515.953 656.342 515.968 655.354C515.984 654.367 515.225 653.553 514.274 653.537H496.199Z" fill="#E6E6E6"/>
<path fill-rule="evenodd" clip-rule="evenodd" d="M470.317 641.912C470.592 642.198 471.037 642.198 471.312 641.912L474.332 638.776V646.511C474.328 646.701 474.4 646.885 474.531 647.023C474.663 647.16 474.844 647.24 475.034 647.244C475.128 647.242 475.221 647.222 475.307 647.185C475.394 647.147 475.472 647.093 475.538 647.026C475.603 646.958 475.655 646.878 475.689 646.79C475.724 646.703 475.741 646.609 475.739 646.515V638.775L478.759 641.912C479.034 642.199 479.479 642.2 479.755 641.915C479.888 641.776 479.962 641.591 479.962 641.399C479.963 641.207 479.889 641.022 479.757 640.882L479.755 640.879L475.533 636.495C475.469 636.427 475.392 636.374 475.306 636.337C475.221 636.3 475.129 636.281 475.036 636.281C474.942 636.281 474.85 636.3 474.765 636.337C474.679 636.374 474.602 636.427 474.538 636.495L470.317 640.879C470.185 641.018 470.111 641.203 470.111 641.396C470.111 641.588 470.185 641.773 470.317 641.912V641.912Z" fill="white"/>
<path fill-rule="evenodd" clip-rule="evenodd" d="M744.015 769.015H737.225L733.995 741.815L744.015 741.816V769.016V769.015Z" fill="#FFB7B7"/>
<path fill-rule="evenodd" clip-rule="evenodd" d="M745.746 775.852L723.852 775.851V775.563C723.852 770.676 727.667 766.713 732.373 766.713H745.747V775.852H745.746Z" fill="#2F2E41"/>
<path fill-rule="evenodd" clip-rule="evenodd" d="M719.091 769.015H712.301L709.071 741.815L719.093 741.816L719.091 769.016V769.015Z" fill="#FFB7B7"/>
<path fill-rule="evenodd" clip-rule="evenodd" d="M720.823 775.852L698.929 775.851V775.563C698.929 770.676 702.744 766.713 707.45 766.713H720.823V775.852Z" fill="#2F2E41"/>
<path fill-rule="evenodd" clip-rule="evenodd" d="M706.293 680.792C707.483 679.782 708.183 678.277 708.202 676.681C708.214 675.899 708.059 675.123 707.747 674.406C707.435 673.688 706.973 673.046 706.392 672.522L710.082 660.808L703.775 656.742L698.787 673.362C697.2 675.56 697.447 678.643 699.362 680.539C701.277 682.435 704.255 682.544 706.293 680.792V680.792Z" fill="#FFB7B7"/>
<path fill-rule="evenodd" clip-rule="evenodd" d="M713.022 673.059C713.022 673.059 706.684 708.689 706.763 715.604C706.859 723.95 710.434 759.719 710.434 759.719L719.538 757.355L721.258 715.897L728.458 689.438L731.228 723.375L734.008 759.074H744.568L746.934 669.514L712.453 668.331L713.022 673.059V673.059Z" fill="#2F2E41"/>
<path fill-rule="evenodd" clip-rule="evenodd" d="M744.6 601.263L726.393 601.853L715.013 675.127C715.013 675.127 739.195 686.65 749.436 678.377C759.678 670.104 744.6 601.263 744.6 601.263V601.263Z" fill="#CBCBCB"/>
<path fill-rule="evenodd" clip-rule="evenodd" d="M728.953 616.922L713.591 708.513L703.918 705.559L710.746 672.468L714.16 639.377L713.59 606.286L725.54 600.967L728.953 596.831C728.953 596.831 735.781 605.695 728.953 616.922V616.922Z" fill="#2F2E41"/>
<path fill-rule="evenodd" clip-rule="evenodd" d="M736.919 614.686L738.057 710.877L761.385 706.741L759.678 617.513L761.954 605.103L750.574 599.786L745.966 596.831C745.966 596.831 735.781 600.041 736.919 614.686V614.686Z" fill="#2F2E41"/>
<path fill-rule="evenodd" clip-rule="evenodd" d="M718.711 608.058L713.591 606.286L706.194 640.558L699.935 667.741L709.039 669.513L717.574 639.968L718.711 608.058V608.058Z" fill="#2F2E41"/>
<path fill-rule="evenodd" clip-rule="evenodd" d="M770.008 686.544C768.818 685.534 768.119 684.029 768.1 682.433C768.088 681.651 768.243 680.875 768.555 680.158C768.867 679.44 769.329 678.798 769.91 678.274L766.22 666.56L772.527 662.494L777.515 679.114C779.102 681.312 778.855 684.395 776.94 686.291C775.025 688.187 772.047 688.296 770.008 686.544Z" fill="#FFB7B7"/>
<path fill-rule="evenodd" clip-rule="evenodd" d="M757.036 606.908L762.157 605.135L769.554 639.408L776.367 673.492L766.12 675.058L758.174 638.818L757.036 606.908V606.908Z" fill="#2F2E41"/>
<path fill-rule="evenodd" clip-rule="evenodd" d="M730.678 568.949C736.807 565.469 744.491 567.809 747.841 574.173C751.191 580.538 748.939 588.518 742.811 591.998C736.681 595.477 728.998 593.138 725.648 586.773C722.298 580.408 724.55 572.428 730.678 568.949V568.949Z" fill="#FFB7B7"/>
<path fill-rule="evenodd" clip-rule="evenodd" d="M768.268 776.145H665.713C665.593 776.143 665.478 776.093 665.395 776.006C665.311 775.92 665.265 775.803 665.267 775.683C665.267 775.427 665.467 775.22 665.713 775.22H768.267C768.513 775.22 768.713 775.427 768.713 775.683C768.713 775.939 768.513 776.146 768.267 776.146L768.268 776.145Z" fill="#CBCBCB"/>
<path fill-rule="evenodd" clip-rule="evenodd" d="M732.336 563.288C744.426 559.667 747.857 570.073 747.857 570.073C753.685 574.088 750.037 579.123 750.037 579.123C751.507 579.462 748.567 588.398 747.587 588.172C747.063 588.052 745.718 589.719 744.577 591.3C744.187 591.3 743.796 591.339 743.412 591.416L745.625 582.912C745.625 582.912 738.165 581.725 735.877 577.992C733.688 574.422 726.484 573.294 724.434 575.679C724.314 574.996 724.065 574.342 723.702 573.751C723.425 573.307 723.059 572.926 722.627 572.631C724.44 564.631 732.337 563.288 732.337 563.288H732.336Z" fill="#2F2E41"/>
</g>
</g>
<defs>
<filter id="filter0_d_1_208" x="0" y="0" width="782.559" height="784.146" filterUnits="userSpaceOnUse" color-interpolation-filters="sRGB">
<feFlood flood-opacity="0" result="BackgroundImageFix"/>
<feColorMatrix in="SourceAlpha" type="matrix" values="0 0 0 0 0 0 0 0 0 0 0 0 0 0 0 0 0 0 127 0" result="hardAlpha"/>
<feOffset dy="4"/>
<feGaussianBlur stdDeviation="2"/>
<feComposite in2="hardAlpha" operator="out"/>
<feColorMatrix type="matrix" values="0 0 0 0 0 0 0 0 0 0 0 0 0 0 0 0 0 0 0.25 0"/>
<feBlend mode="normal" in2="BackgroundImageFix" result="effect1_dropShadow_1_208"/>
<feBlend mode="normal" in="SourceGraphic" in2="effect1_dropShadow_1_208" result="shape"/>
</filter>
<clipPath id="clip0_1_208">
<rect width="621.204" height="468.929" fill="white" transform="translate(4 310.602) rotate(-30)"/>
</clipPath>
<clipPath id="clip1_1_208">
<rect width="324.559" height="295.146" fill="white" transform="translate(454 481)"/>
</clipPath>
</defs>
</svg>
