<svg xmlns="http://www.w3.org/2000/svg" width="324.559" height="295.146" viewBox="1041.867 538.895 324.559 295.146"><g data-name="undraw_stock_prices_re_js33"><path d="M1061.498 538.895c-.671 0-1.215.565-1.216 1.262v43.072c0 .697.545 1.262 1.216 1.263h141.416c.671-.001 1.215-.566 1.216-1.263v-43.072c-.001-.697-.545-1.262-1.216-1.262h-141.416Z" fill="#e6e6e6" fill-rule="evenodd" data-name="fc914514-1042-4f3e-9382-2a2bd3a05a2f"/><path d="M1063.329 581.328h137.753v-39.27h-137.753v39.27Z" fill="#fff" fill-rule="evenodd" data-name="fc60a940-5b5f-47e1-886f-8b9349204f05"/><path d="M1183.694 573.18c-1.112 0-2.014.937-2.014 2.093 0 1.155.902 2.092 2.014 2.092h8.057c1.112 0 2.014-.937 2.014-2.092 0-1.156-.902-2.092-2.014-2.092h-8.057Z" fill="#f9a826" fill-rule="evenodd" data-name="b37dca77-34e7-4938-924b-74ea49a8e34b"/><path d="M1100.759 569.123h93.006v.55h-93.006v-.55z" fill="#e6e6e6" fill-rule="evenodd" data-name="a114a1b8-363a-4115-bcea-0275bda15cb1"/><path d="M1069.586 561.593a11.732 12.184 0 1 1 0 .1z" fill="#e6e6e6" fill-rule="evenodd" data-name="fd059875-cd6f-429e-81eb-c199f1a3d666"/><path d="m1100.907 566.05-.294-.458 9.665-6.692 6.627 3.304 9.532-6.325.13.057 18.833 8.344 15.101-7.704 14.664 6.174 18.426 3.89.351.412-18.671-3.663-14.75-6.21-15.106 7.706-18.929-8.386-9.545 6.334-6.622-3.301-9.412 6.518Z" fill="#3f3d56" fill-rule="evenodd" data-name="ad693766-5e26-437f-8d3d-58ce33ee9e84"/><path d="M1102.481 573.47c-.951-.001-1.722.8-1.722 1.788s.77 1.789 1.722 1.789h18.018c.952.015 1.735-.773 1.75-1.76.015-.988-.743-1.802-1.694-1.818h-18.074Z" fill="#e6e6e6" fill-rule="evenodd" data-name="ff424c2d-4733-4249-9b35-4eb43ebe2556"/><path d="M1086.036 561.542a.685.685 0 0 0-.994 0l-3.02 3.137v-7.735a.718.718 0 0 0-.705-.731.718.718 0 0 0-.703.73v7.736l-3.02-3.137a.685.685 0 0 0-.995-.003.75.75 0 0 0-.003 1.034l.003.002 4.221 4.384c.275.286.72.286.995 0l4.221-4.384a.75.75 0 0 0 0-1.033Z" fill="#fff" fill-rule="evenodd" data-name="Path 113"/><path d="M1117.133 607.876c-.67 0-1.215.565-1.215 1.263v43.071c0 .697.544 1.262 1.215 1.263h141.417c.671 0 1.215-.566 1.216-1.263V609.14c-.001-.698-.545-1.263-1.216-1.263h-141.417Z" fill="#e6e6e6" fill-rule="evenodd" data-name="ebf544e0-cedc-491d-9ace-ce79788cc3b4"/><path d="M1118.965 650.309h137.753v-39.27h-137.753v39.27Z" fill="#fff" fill-rule="evenodd" data-name="f05ecdaf-6a8f-49c4-b8a7-f7e5ce9efcf7"/><path d="M1239.33 642.163c-1.112 0-2.014.936-2.014 2.092 0 1.155.902 2.092 2.014 2.092h8.056c1.113 0 2.014-.937 2.014-2.092 0-1.156-.901-2.092-2.014-2.092h-8.056Z" fill="#f9a826" fill-rule="evenodd" data-name="a9f7bc9d-00a6-4157-bba1-ffc7ec111a68"/><path d="M1156.395 638.105h93.006v.55h-93.006v-.55z" fill="#e6e6e6" fill-rule="evenodd" data-name="a15d3d52-efbb-4636-8d15-228635c5d6e5"/><path d="M1125.221 630.575a11.732 12.184 0 1 1 0 .1z" fill="#f9a826" fill-rule="evenodd" data-name="e4ee77d8-efe6-4a2a-a3ed-71b8f3ee957e"/><path d="m1156.542 635.031-.294-.457 9.664-6.692 6.628 3.304 9.533-6.325.128.057 18.834 8.344 15.102-7.704 14.664 6.174 18.425-16.949.351.412-18.671 17.174-14.749-6.21-15.106 7.707-18.929-8.386-9.545 6.333-6.62-3.3-9.415 6.518Z" fill="#3f3d56" fill-rule="evenodd" data-name="fc1c89ac-2b6e-4831-b128-0ac2ab1fa850"/><path d="M1158.117 642.45c-.951-.016-1.735.772-1.75 1.76-.016.988.743 1.802 1.694 1.818h18.075c.95 0 1.722-.801 1.722-1.789 0-.988-.771-1.789-1.722-1.789h-18.019Z" fill="#e6e6e6" fill-rule="evenodd" data-name="bd690ac4-3df0-4871-95d5-adaa934b7c24"/><path d="M1132.234 630.826c.275.285.72.285.995 0l3.02-3.137v7.735c0 .404.316.731.704.731a.718.718 0 0 0 .704-.73v-7.736l3.02 3.137c.275.285.72.285.995 0a.75.75 0 0 0 0-1.033l-4.221-4.384a.685.685 0 0 0-.995 0l-4.222 4.384a.75.75 0 0 0 0 1.033Z" fill="#fff" fill-rule="evenodd" data-name="Path 114"/><path d="M1043.083 676.857c-.671.001-1.215.566-1.216 1.263v43.072c0 .697.545 1.262 1.216 1.263H1184.5c.671-.001 1.215-.566 1.216-1.263V678.12c0-.697-.545-1.262-1.216-1.263h-141.416Z" fill="#e6e6e6" fill-rule="evenodd" data-name="b1a491a7-739b-4f1f-bff8-dbf70f6892c8"/><path d="M1044.914 719.29h137.754v-39.268h-137.754v39.269Z" fill="#fff" fill-rule="evenodd" data-name="acd48b1a-d10a-4276-b388-f016adebff0c"/><path d="M1165.28 711.144c-1.113 0-2.015.937-2.015 2.092s.902 2.092 2.014 2.092h8.057c1.113 0 2.014-.937 2.014-2.092s-.901-2.092-2.014-2.092h-8.057Z" fill="#f9a826" fill-rule="evenodd" data-name="bed21912-b6c9-41df-a59b-963435bac71a"/><path d="M1082.344 707.087h93.007v.55h-93.007v-.55z" fill="#e6e6e6" fill-rule="evenodd" data-name="a26455fb-834b-4368-afb2-80d86a75d46a"/><path d="M1051.171 699.556a11.732 12.184 0 1 1 0 .1z" fill="#f9a826" fill-rule="evenodd" data-name="f17c58cd-37a1-42e1-9e5f-26c2ec8825b4"/><path d="m1082.491 704.013-.294-.458 9.665-6.692 6.627 3.304 9.533-6.327 18.963 8.401 15.1-7.704 14.663 6.176 18.425-7.687.352.412-18.67 7.913-14.748-6.21-15.107 7.707-18.928-8.386-9.545 6.334-6.622-3.3-9.414 6.517Z" fill="#3f3d56" fill-rule="evenodd" data-name="b803193f-4714-40c6-8606-08b9dea6d22d"/><path d="M1084.066 711.432c-.95 0-1.722.8-1.722 1.788s.771 1.79 1.722 1.79l18.019-.001c.95.016 1.735-.772 1.75-1.76.016-.987-.743-1.801-1.694-1.817h-18.075Z" fill="#e6e6e6" fill-rule="evenodd" data-name="b19b31b4-3a52-4fc9-8ed4-dc6729deb0ed"/><path d="M1058.184 699.807c.275.286.72.286.995 0l3.02-3.136v7.735a.718.718 0 0 0 .702.733.717.717 0 0 0 .705-.729v-7.74l3.02 3.137c.275.287.72.288.996.003a.75.75 0 0 0 .002-1.033l-.002-.003-4.222-4.384a.685.685 0 0 0-.995 0l-4.221 4.384a.75.75 0 0 0 0 1.033Z" fill="#fff" fill-rule="evenodd" data-name="Path 115"/><path d="M1331.882 826.91h-6.79l-3.23-27.2 10.02.001v27.2Z" fill="#ffb7b7" fill-rule="evenodd" data-name="Path 116"/><path d="m1333.613 833.747-21.894-.001v-.288c0-4.887 3.815-8.85 8.521-8.85h13.374v9.139Z" fill="#2f2e41" fill-rule="evenodd" data-name="Path 117"/><path d="M1306.958 826.91h-6.79l-3.23-27.2 10.022.001-.002 27.2Z" fill="#ffb7b7" fill-rule="evenodd" data-name="Path 118"/><path d="m1308.69 833.747-21.894-.001v-.288c0-4.887 3.815-8.85 8.521-8.85h13.373v9.139Z" fill="#2f2e41" fill-rule="evenodd" data-name="Path 119"/><path d="M1294.16 738.687c1.19-1.01 1.89-2.515 1.909-4.111a5.485 5.485 0 0 0-1.81-4.159l3.69-11.714-6.307-4.066-4.988 16.62c-1.587 2.198-1.34 5.281.575 7.177s4.893 2.005 6.931.253Z" fill="#ffb7b7" fill-rule="evenodd" data-name="Path 120"/><path d="M1300.889 730.954s-6.338 35.63-6.259 42.545c.096 8.346 3.671 44.115 3.671 44.115l9.104-2.364 1.72-41.458 7.2-26.459 2.77 33.937 2.78 35.699h10.56l2.366-89.56-34.481-1.183.569 4.728Z" fill="#2f2e41" fill-rule="evenodd" data-name="Path 121"/><path d="m1332.467 659.158-18.207.59-11.38 73.274s24.182 11.523 34.423 3.25c10.242-8.273-4.836-77.114-4.836-77.114Z" fill="#cbcbcb" fill-rule="evenodd" data-name="Path 122"/><path d="m1316.82 674.817-15.362 91.591-9.673-2.954 6.828-33.091 3.414-33.091-.57-33.091 11.95-5.319 3.413-4.136s6.828 8.864 0 20.091Z" fill="#2f2e41" fill-rule="evenodd" data-name="Path 123"/><path d="m1324.786 672.581 1.138 96.191 23.328-4.136-1.707-89.228 2.276-12.41-11.38-5.317-4.608-2.955s-10.185 3.21-9.047 17.855Z" fill="#2f2e41" fill-rule="evenodd" data-name="Path 124"/><path d="m1306.578 665.953-5.12-1.772-7.397 34.272-6.259 27.183 9.104 1.772 8.535-29.545 1.137-31.91Z" fill="#2f2e41" fill-rule="evenodd" data-name="Path 125"/><path d="M1357.875 744.439c-1.19-1.01-1.889-2.515-1.908-4.111a5.485 5.485 0 0 1 1.81-4.159l-3.69-11.714 6.307-4.066 4.988 16.62c1.587 2.198 1.34 5.281-.575 7.177s-4.893 2.005-6.932.253Z" fill="#ffb7b7" fill-rule="evenodd" data-name="Path 126"/><path d="m1344.903 664.803 5.121-1.773 7.397 34.273 6.813 34.084-10.247 1.566-7.946-36.24-1.138-31.91Z" fill="#2f2e41" fill-rule="evenodd" data-name="Path 127"/><path d="M1318.545 626.844c6.129-3.48 13.813-1.14 17.163 5.224 3.35 6.365 1.098 14.345-5.03 17.825-6.13 3.479-13.813 1.14-17.163-5.225-3.35-6.365-1.098-14.345 5.03-17.824Z" fill="#ffb7b7" fill-rule="evenodd" data-name="Path 130"/><path d="M1356.135 834.04H1253.58a.455.455 0 0 1-.446-.462c0-.256.2-.463.446-.463h102.554c.246 0 .446.207.446.463s-.2.463-.446.463Z" fill="#cbcbcb" fill-rule="evenodd" data-name="Path 128"/><path d="M1320.203 621.183c12.09-3.621 15.521 6.785 15.521 6.785 5.828 4.015 2.18 9.05 2.18 9.05 1.47.339-1.47 9.275-2.45 9.049-.524-.12-1.869 1.547-3.01 3.128-.39 0-.781.039-1.165.116l2.213-8.504s-7.46-1.187-9.748-4.92c-2.189-3.57-9.393-4.698-11.443-2.313a5.508 5.508 0 0 0-.732-1.928 3.786 3.786 0 0 0-1.075-1.12c1.813-8 9.71-9.343 9.71-9.343Z" fill="#2f2e41" fill-rule="evenodd" data-name="Path 129"/></g></svg>