<svg xmlns="http://www.w3.org/2000/svg" width="149.73" height="36.855" viewBox="1007 962.424 149.73 36.855"><g data-name="optimism-logo"><g data-name="text"><path d="M1057.952 973.2a7.44 7.44 0 0 1 3.584.817 5.669 5.669 0 0 1 2.33 2.31 7.076 7.076 0 0 1 .817 3.453 10.651 10.651 0 0 1-.174 1.808 9.168 9.168 0 0 1-1.557 3.822 8.34 8.34 0 0 1-2.996 2.602 8.536 8.536 0 0 1-3.986.938 7.554 7.554 0 0 1-3.617-.817 5.601 5.601 0 0 1-2.33-2.3 7.09 7.09 0 0 1-.807-3.44c.005-.62.063-1.24.174-1.85a9.168 9.168 0 0 1 1.558-3.824 8.216 8.216 0 0 1 3.006-2.593 8.684 8.684 0 0 1 3.998-.926Zm-.24 2.832a4.945 4.945 0 0 0-3.442 1.33 6.183 6.183 0 0 0-1.873 3.572 8.356 8.356 0 0 0-.11 1.22c0 1.22.35 2.182 1.047 2.887.697.704 1.655 1.056 2.874 1.056.844.007 1.675-.199 2.418-.599a5.323 5.323 0 0 0 1.874-1.71 6.29 6.29 0 0 0 1.002-2.592c.077-.41.113-.825.109-1.24 0-1.22-.349-2.18-1.046-2.875-.697-.697-1.648-1.046-2.852-1.049Zm17.451.545c1.336 0 2.4.414 3.192 1.24.791.828 1.187 1.975 1.187 3.443a9.15 9.15 0 0 1-.13 1.503 8.721 8.721 0 0 1-1.286 3.302 6.499 6.499 0 0 1-2.289 2.146 5.89 5.89 0 0 1-2.874.74 3.94 3.94 0 0 1-2.473-.73 3.138 3.138 0 0 1-1.189-1.95l-1.458 8.28h-3.072l3.139-17.821h3.07l-.457 2.505a5.062 5.062 0 0 1 1.895-1.939 5.305 5.305 0 0 1 2.745-.719Zm-2.68 9.673a3.594 3.594 0 0 0 2.462-.926 4.364 4.364 0 0 0 1.35-2.56c.042-.274.064-.55.066-.828a2.658 2.658 0 0 0-.708-1.982 2.659 2.659 0 0 0-1.95-.696 3.598 3.598 0 0 0-2.461.948 4.293 4.293 0 0 0-1.351 2.56c-.042.259-.064.521-.066.784-.04.733.224 1.45.73 1.981a2.629 2.629 0 0 0 1.928.719Zm12.244-1.657a2.506 2.506 0 0 0-.044.523.961.961 0 0 0 .305.817 1.7 1.7 0 0 0 1.003.229h1.198l-.48 2.637h-1.613c-1.147 0-2.026-.232-2.636-.696-.61-.464-.915-1.226-.915-2.288a6.67 6.67 0 0 1 .13-1.263l.916-5.229h-1.677l.458-2.592h1.677l.523-2.985h3.094l-.523 2.985h2.658l-.458 2.592h-2.68l-.936 5.27Zm6.797-11.024c-.01-.542.221-1.061.632-1.416a2.293 2.293 0 0 1 1.59-.566c.423-.024.84.112 1.166.381.281.251.436.614.423.991a1.804 1.804 0 0 1-.62 1.406 2.28 2.28 0 0 1-1.58.555 1.748 1.748 0 0 1-1.187-.37 1.237 1.237 0 0 1-.424-.98Zm2.832 3.16-2.135 12.07h-3.07l2.135-12.07h3.07Zm18.17-.175c1.249 0 2.218.338 2.908 1.013.69.675 1.035 1.645 1.035 2.909.002.438-.034.875-.109 1.307l-1.242 7.016h-3.072l1.199-6.667c.042-.244.064-.492.065-.74a2.097 2.097 0 0 0-.588-1.602 2.285 2.285 0 0 0-1.634-.555 3.172 3.172 0 0 0-2.168.773 3.866 3.866 0 0 0-1.165 2.277l-1.155 6.514h-3.072l1.198-6.667c.042-.244.064-.492.066-.74a2.097 2.097 0 0 0-.588-1.602 2.285 2.285 0 0 0-1.634-.555 3.175 3.175 0 0 0-2.19.806 3.905 3.905 0 0 0-1.165 2.353v-.11l-1.133 6.515h-3.094l2.135-12.07h3.072l-.393 2.266a4.802 4.802 0 0 1 1.819-1.797 5.049 5.049 0 0 1 2.516-.643c.86-.034 1.708.21 2.418.696a3.302 3.302 0 0 1 1.264 2.005 5.85 5.85 0 0 1 2.048-1.972 5.235 5.235 0 0 1 2.659-.729Zm7.647-2.985c-.011-.542.22-1.061.631-1.416a2.293 2.293 0 0 1 1.59-.566c.423-.024.84.112 1.166.381.282.251.437.614.424.991a1.804 1.804 0 0 1-.621 1.406 2.28 2.28 0 0 1-1.58.555 1.748 1.748 0 0 1-1.187-.37 1.237 1.237 0 0 1-.423-.98Zm2.832 3.16-2.135 12.07h-3.072l2.135-12.07h3.072Zm6.384-.152c1.627 0 2.865.367 3.715 1.1a4.058 4.058 0 0 1 1.383 2.974h-3.006a1.798 1.798 0 0 0-.632-1.405 2.602 2.602 0 0 0-1.721-.512 2.234 2.234 0 0 0-1.34.37c-.33.225-.523.603-.512 1.002-.004.416.24.793.62.959a9.882 9.882 0 0 0 1.929.675c.698.197 1.385.434 2.057.708.527.223.996.562 1.373.992.4.48.607 1.095.577 1.72 0 .279-.03.556-.087.829a3.265 3.265 0 0 1-1.503 2.144c-.828.545-1.932.817-3.312.817-1.583 0-2.85-.359-3.802-1.077a3.655 3.655 0 0 1-1.471-2.996h3.006a1.51 1.51 0 0 0 .621 1.395c.561.379 1.231.562 1.907.523.475.032.947-.107 1.329-.394a1.26 1.26 0 0 0 .457-1.002 1.043 1.043 0 0 0-.338-.795 2.456 2.456 0 0 0-.838-.501 19.671 19.671 0 0 0-1.438-.447c-.68-.183-1.35-.405-2.005-.665a3.446 3.446 0 0 1-1.307-.948 2.446 2.446 0 0 1-.544-1.656c.001-.263.023-.525.065-.784a3.258 3.258 0 0 1 1.494-2.187c.835-.56 1.942-.839 3.322-.839Zm23.398-.022c1.25 0 2.219.338 2.909 1.013.69.676 1.034 1.645 1.034 2.909.003.438-.034.875-.109 1.307l-1.243 7.015h-3.071l1.198-6.667c.042-.244.064-.492.065-.74a2.097 2.097 0 0 0-.588-1.602 2.285 2.285 0 0 0-1.634-.555 3.172 3.172 0 0 0-2.168.773 3.866 3.866 0 0 0-1.165 2.277l-1.155 6.514h-3.072l1.199-6.667c.042-.244.064-.492.065-.74a2.097 2.097 0 0 0-.588-1.602 2.285 2.285 0 0 0-1.634-.555 3.175 3.175 0 0 0-2.19.806 3.905 3.905 0 0 0-1.165 2.353v-.11l-1.133 6.515h-3.094l2.134-12.07h3.072l-.393 2.266a4.802 4.802 0 0 1 1.819-1.797 5.049 5.049 0 0 1 2.516-.643c.86-.034 1.708.21 2.418.696a3.302 3.302 0 0 1 1.264 2.005 5.85 5.85 0 0 1 2.048-1.972 5.235 5.235 0 0 1 2.66-.729Z" fill-rule="evenodd" data-name="Path 238"/></g><g data-name="optimism-logo-circle"><path d="M1007 980.802a18.427 18.427 0 1 1 0 .1z" fill="#ff0420" fill-rule="evenodd" data-name="Ellipse 11"/><path d="M1020.072 985.827a4.435 4.435 0 0 1-2.7-.776 2.651 2.651 0 0 1-1.039-2.243c.004-.25.027-.5.07-.748.12-.665.29-1.464.512-2.395.627-2.539 2.247-3.808 4.86-3.808a4.831 4.831 0 0 1 1.91.36c.538.21 1.001.577 1.33 1.052.331.49.5 1.071.484 1.662a4.93 4.93 0 0 1-.07.734c-.138.822-.304 1.62-.498 2.395-.323 1.265-.881 2.211-1.675 2.839-.794.618-1.855.928-3.184.928Zm.194-1.994c.48.013.947-.15 1.315-.457.407-.37.684-.86.79-1.399.212-.867.373-1.624.484-2.27.037-.197.055-.396.055-.596 0-.84-.438-1.26-1.315-1.26a2.022 2.022 0 0 0-1.33.457c-.399.373-.67.862-.775 1.398a30.026 30.026 0 0 0-.498 2.271 2.962 2.962 0 0 0-.056.582c0 .849.443 1.274 1.33 1.274Z" fill="#fff" fill-rule="evenodd" data-name="Path 139"/><path d="M1026.137 985.688a.293.293 0 0 1-.236-.096.333.333 0 0 1-.041-.25l1.91-9a.396.396 0 0 1 .152-.25.424.424 0 0 1 .263-.097h3.683a4.28 4.28 0 0 1 2.465.637c.618.405.976 1.105.942 1.842-.001.243-.03.484-.083.72a3.749 3.749 0 0 1-1.399 2.354c-.692.508-1.643.762-2.852.762h-1.87l-.636 3.033a.397.397 0 0 1-.151.249.423.423 0 0 1-.263.097h-1.884Zm4.902-5.29a1.65 1.65 0 0 0 1.01-.318c.302-.22.51-.547.582-.913.026-.137.04-.276.041-.416a.77.77 0 0 0-.235-.61 1.16 1.16 0 0 0-.803-.22h-1.661l-.527 2.478h1.593Z" fill="#fff" fill-rule="evenodd" data-name="Path 140"/></g></g></svg>