<svg xmlns="http://www.w3.org/2000/svg" width="159" height="44.197" viewBox="640.5 958.803 159 44.197"><g data-name="logo"><path d="M659.634 958.803 640.5 969.856v22.098L659.634 1003l19.12-11.046v-22.098l-19.12-11.053Zm13.455 29.877-13.455 7.771-13.462-7.771v-15.557l13.462-7.771 13.455 7.77v15.558Z" fill="#002d74" fill-rule="evenodd" data-name="Path 103"/><path d="m659.635 1003 19.12-11.046v-22.098l-19.12-11.053v6.556l13.454 7.771v15.557l-13.454 7.764V1003Z" fill="#fff" fill-rule="evenodd" data-name="Path 104"/><path d="m659.62 958.803-19.12 11.045v22.1L659.62 1003v-6.556l-13.455-7.771v-15.558l13.455-7.763v-6.549Z" fill="#fff" fill-rule="evenodd" data-name="Path 105"/><path d="m668.558 986.065-8.93 5.156-8.939-5.156v-10.32l8.938-5.163 8.93 5.163-3.717 2.149-5.213-3.015-5.213 3.015v6.015l5.213 3.015 5.213-3.015 3.718 2.156Z" fill="#002d74" fill-rule="evenodd" data-name="Path 106"/><path d="M692.913 982.576v-.06a8.794 8.794 0 0 1 8.886-8.89 8.609 8.609 0 0 1 6.805 2.964l-2.451 2.615c-1.192-1.23-2.452-2.133-4.384-2.133-2.836 0-4.932 2.452-4.932 5.422v.067c0 3.03 2.096 5.445 5.087 5.445a6.002 6.002 0 0 0 4.443-2.096l2.355 2.326a8.923 8.923 0 0 1-15.765-5.616l-.044-.044Z" fill="#002d74" fill-rule="evenodd" data-name="Path 107"/><path d="M712.225 973.968h3.932v3.837c1.066-2.548 3.028-4.29 6.027-4.163v4.133h-.222c-3.42 0-5.805 2.223-5.805 6.734v6.483h-3.932v-17.024Z" fill="#002d74" fill-rule="evenodd" data-name="Path 108"/><path d="M724.058 982.576v-.06a9.085 9.085 0 0 1 9.042-8.858 9.082 9.082 0 0 1 9.107 8.792v.067a8.882 8.882 0 0 1-2.685 6.37 8.89 8.89 0 0 1-6.438 2.52 8.804 8.804 0 0 1-9.026-8.831Zm14.247 0v-.06a5.28 5.28 0 0 0-1.446-3.852 5.258 5.258 0 0 0-3.775-1.637c-3.132 0-5.131 2.452-5.131 5.423v.067a5.253 5.253 0 0 0 1.442 3.817 5.241 5.241 0 0 0 3.741 1.628c3.17 0 5.17-2.453 5.17-5.386Z" fill="#002d74" fill-rule="evenodd" data-name="Path 109"/><path d="M746.14 973.968h3.917v2.615a6.168 6.168 0 0 1 5.324-2.964c3.836 0 6.057 2.578 6.057 6.512V991h-3.902v-9.683c0-2.644-1.318-4.155-3.643-4.155-2.326 0-3.836 1.585-3.836 4.222v9.63h-3.932l.014-17.045Z" fill="#002d74" fill-rule="evenodd" data-name="Path 110"/><path d="M765.23 982.576v-.06a9.083 9.083 0 0 1 9.042-8.858 9.082 9.082 0 0 1 9.107 8.792v.067a8.888 8.888 0 0 1-9.123 8.89 8.806 8.806 0 0 1-9.026-8.831Zm14.247 0v-.06a5.273 5.273 0 0 0-5.22-5.49c-3.133.001-5.132 2.453-5.132 5.424v.067a5.253 5.253 0 0 0 1.442 3.817 5.235 5.235 0 0 0 3.741 1.628c3.147 0 5.169-2.453 5.169-5.386Z" fill="#002d74" fill-rule="evenodd" data-name="Path 111"/><path d="m785.956 988.77 1.74-2.646a9.625 9.625 0 0 0 5.576 2.097c1.681 0 2.644-.74 2.644-1.837v-.067c0-1.319-1.8-1.77-3.799-2.385-2.517-.741-5.324-1.741-5.324-4.964v-.067c0-3.26 2.68-5.222 6.065-5.222 2.223.041 4.39.711 6.25 1.933l-1.548 2.77a9.853 9.853 0 0 0-4.799-1.607c-1.48 0-2.384.741-2.384 1.675v.066c0 1.26 1.836 1.77 3.836 2.415 2.48.778 5.287 1.904 5.287 4.971v.06c0 3.585-2.777 5.356-6.324 5.356a11.74 11.74 0 0 1-7.22-2.549Z" fill="#002d74" fill-rule="evenodd" data-name="Path 112"/></g></svg>