<svg xmlns="http://www.w3.org/2000/svg" width="206.794" height="34.575" viewBox="1174.782 963.614 206.794 34.575"><g data-name="logo"><g data-name="symbol"><path d="m1197.853 979.455 3.036-4.308 8.184 10.66.004 2.045-.027-14.077c-.02-.345-.238-.66-.587-.845l-14.733-7.087a1.53 1.53 0 0 0-1.126.005c-.045.019-.09.04-.132.063l-.05.028-14.302 6.93-.056.021a1.38 1.38 0 0 0-.211.103c-.268.16-.451.402-.51.673a.916.916 0 0 0-.018.124l.023 11.472 7.622-9.88c.96-1.31 3.05-1.733 4.992-1.71l2.278.05-13.423 18.002 1.582.762 13.584-18.747 6.004-.018-13.549 19.219 5.647 2.717.675.325c.29.097.614.102.91.015l14.94-7.24-2.858 1.383-7.899-10.685Zm1.159 13.953-5.703-7.485 3.48-4.94 7.49 9.872-5.267 2.553Z" fill="#2d374b" fill-rule="evenodd" data-name="Path 153"/><path d="m1193.309 985.923 5.703 7.485 5.268-2.554-7.49-9.871-3.481 4.94Z" fill="#28a0f0" fill-rule="evenodd" data-name="Path 154"/><path d="m1209.077 987.852-.003-2.045-8.184-10.66-3.038 4.308 7.9 10.685 2.858-1.384c.28-.19.45-.47.468-.771v-.133Z" fill="#28a0f0" fill-rule="evenodd" data-name="Path 155"/><path d="m1174.784 989.781 4.034 1.944 13.423-18.003-2.278-.049c-1.941-.023-4.032.4-4.992 1.71l-7.622 9.88-2.564 3.295v1.224Z" fill="#fff" fill-rule="evenodd" data-name="Path 156"/><path d="m1199.988 973.722-6.004.018-13.584 18.747 4.748 2.286 1.29-1.831 13.55-19.22Z" fill="#fff" fill-rule="evenodd" data-name="Path 157"/><path d="M1211.607 973.696c-.056-1.052-.728-2.013-1.796-2.57l-14.926-7.18a4.571 4.571 0 0 0-3.425 0c-.124.053-14.515 7.033-14.515 7.033-.2.08-.391.175-.572.283-.946.563-1.533 1.458-1.59 2.428v14.867l2.563-3.295-.02-11.47c.024-.319.218-.612.528-.798.067-.04 14.704-7.126 14.75-7.145a1.53 1.53 0 0 1 1.126-.005l14.734 7.088c.348.185.566.5.586.844v14.21c-.007.298-.168.58-.44.771l-2.859 1.385-1.473.714-5.268 2.553-5.342 2.59a1.533 1.533 0 0 1-.91-.015l-6.32-3.04-1.291 1.83 5.68 2.736.493.233c.213.098.358.166.409.187a4.32 4.32 0 0 0 1.507.26 4.46 4.46 0 0 0 1.391-.22l15.517-7.515c.886-.576 1.422-1.451 1.462-2.39v-14.369Z" fill="#96bedc" fill-rule="evenodd" data-name="Path 158"/></g><g data-name="text"><path d="M1233.579 976.377c.369-.01.734.063 1.056.214.36.214.65.501.841.834l5.462 8.293c.05.068.066.15.04.228-.027.06-.106.09-.238.09h-2.096c-.159.013-.311-.059-.38-.18l-1.17-1.78h-7.755l-1.14 1.78a.418.418 0 0 1-.378.18h-2.145c-.143 0-.228-.03-.256-.09a.247.247 0 0 1 .042-.228l5.411-8.293c.188-.327.465-.613.809-.834.276-.146.597-.22.924-.214h.973Zm-3.2 6.099h5.675l-2.622-4.043a.208.208 0 0 0-.182-.097h-.101a.208.208 0 0 0-.182.097l-2.588 4.043Zm27.915-6.1c1.265 0 2.173.24 2.723.718.55.479.825 1.187.825 2.125v.787c.042.66-.16 1.315-.578 1.876-.385.46-1.012.755-1.88.883l2.82 2.925a.19.19 0 0 1 .05.207c-.022.092-.11.138-.265.138h-2.128a.736.736 0 0 1-.297-.04.546.546 0 0 1-.165-.139l-2.607-2.87h-5.328v2.746a.243.243 0 0 1-.09.228.361.361 0 0 1-.273.075h-1.782c-.252 0-.378-.1-.378-.303v-8.941a.331.331 0 0 1 .123-.31.493.493 0 0 1 .372-.104h8.858Zm-6.83 4.927h6.319c.56 0 .957-.101 1.188-.304.254-.259.378-.59.346-.924v-.58a1.16 1.16 0 0 0-.346-.924c-.231-.203-.627-.304-1.188-.304h-6.105c-.143 0-.214.055-.214.166v2.87Zm29.005-4.926c1.133 0 1.938.189 2.416.567.478.377.717.948.718 1.71v.663c.044.7-.358 1.366-1.056 1.752.759.368 1.138.961 1.138 1.78v.8c.005.336-.044.67-.147.994-.09.28-.256.537-.487.752a2.253 2.253 0 0 1-.9.476c-.446.12-.914.175-1.384.165h-9.801a.493.493 0 0 1-.372-.103.331.331 0 0 1-.123-.31v-8.832a.331.331 0 0 1 .123-.31.493.493 0 0 1 .372-.104h9.503Zm-7.474 5.519v2.056c-.009.05.011.1.054.135a.213.213 0 0 0 .16.044h6.765c.332.026.664-.045.94-.2a.73.73 0 0 0 .28-.64v-.525a.747.747 0 0 0-.304-.648c-.204-.148-.58-.222-1.13-.222h-6.765Zm0-1.503h6.763c.55 0 .924-.069 1.122-.207a.69.69 0 0 0 .297-.607v-.468a.707.707 0 0 0-.288-.628 1.682 1.682 0 0 0-.933-.2h-6.747a.213.213 0 0 0-.16.045.143.143 0 0 0-.054.134v1.931Zm21.4-4.016c.1-.012.2.016.271.076.072.06.105.144.091.227v9.052a.243.243 0 0 1-.09.228.361.361 0 0 1-.273.075h-1.782c-.253 0-.38-.1-.38-.303v-9.052c0-.202.127-.303.38-.303h1.782Zm20.623 0c.1-.012.2.016.272.076.071.06.105.144.09.227v1.311a.243.243 0 0 1-.09.228.361.361 0 0 1-.272.076h-8.266a.916.916 0 0 0-.678.207.782.782 0 0 0-.198.566v.469c0 .515.286.772.858.772h6.187c.957 0 1.678.205 2.162.614.484.41.726.996.726 1.76v1.103c.031.6-.224 1.186-.71 1.629-.472.413-1.209.62-2.21.62h-9.14c-.253 0-.38-.1-.38-.303v-1.31c0-.203.127-.304.38-.304h8.662a.916.916 0 0 0 .678-.207.782.782 0 0 0 .198-.567v-.567c0-.515-.286-.773-.858-.773h-6.188c-.956 0-1.677-.204-2.16-.614-.485-.409-.727-.995-.727-1.759v-1.007c-.032-.6.224-1.186.71-1.628.473-.414 1.21-.621 2.21-.621l8.744.002Zm21.2 0c.1-.012.202.016.273.076.072.06.105.144.09.227v1.353c0 .211-.12.317-.362.317h-7.342a5.239 5.239 0 0 0-1.064.09 1.477 1.477 0 0 0-.669.303 1.18 1.18 0 0 0-.353.573c-.08.299-.115.605-.107.911v1.96c-.008.308.028.616.107.917.054.216.176.417.353.58.185.15.416.256.668.302.349.066.706.096 1.064.09h7.342c.1-.012.2.016.272.076.071.06.105.144.09.228v1.352a.243.243 0 0 1-.09.227.361.361 0 0 1-.271.076h-7.441a10.034 10.034 0 0 1-2.128-.193 3.503 3.503 0 0 1-1.428-.628 2.498 2.498 0 0 1-.808-1.131 4.923 4.923 0 0 1-.256-1.69v-2.373a4.863 4.863 0 0 1 .256-1.684c.147-.427.426-.815.808-1.124a3.57 3.57 0 0 1 1.428-.635 9.7 9.7 0 0 1 2.128-.2h7.44Zm16.054 0c.369-.01.734.063 1.056.214.361.214.65.501.842.834l5.46 8.293c.052.068.067.15.042.228-.027.06-.107.09-.24.09h-2.094c-.16.013-.312-.059-.38-.18l-1.171-1.78h-7.755l-1.138 1.78a.418.418 0 0 1-.38.18h-2.145c-.143 0-.228-.03-.255-.09a.247.247 0 0 1 .04-.228l5.413-8.293c.188-.327.464-.613.808-.834.276-.146.598-.22.924-.214h.973Zm-3.2 6.099h5.675l-2.622-4.043a.208.208 0 0 0-.181-.097h-.1a.208.208 0 0 0-.18.097l-2.592 4.043Zm21.498-6.1c.22-.001.44.008.66.028.161.015.318.055.462.118.14.065.269.15.38.248.147.133.285.274.412.42l6.137 6.734a.241.241 0 0 0 .215.097h.147c.088 0 .132-.046.132-.138v-7.203a.243.243 0 0 1 .09-.227.361.361 0 0 1 .273-.076h1.732c.1-.012.201.016.273.076.071.06.105.144.09.227v7.92c0 .562-.12.941-.363 1.139a1.762 1.762 0 0 1-1.12.296h-1.42a6.086 6.086 0 0 1-.635-.027 1.626 1.626 0 0 1-.453-.11 1.522 1.522 0 0 1-.388-.242 4.428 4.428 0 0 1-.437-.434l-6.154-6.734a.301.301 0 0 0-.215-.097h-.147c-.088 0-.132.046-.132.138v7.203a.243.243 0 0 1-.091.228.362.362 0 0 1-.273.075h-1.733c-.253 0-.38-.1-.38-.303v-7.92c0-.561.122-.94.364-1.139a1.762 1.762 0 0 1 1.122-.295l1.452-.001Z" fill="#2d374b" fill-rule="evenodd" data-name="Path 167"/></g></g></svg>